STARTFONT 2.1
FONT -nil-ProFont-medium-r-normal--29-290-72-72-c-160-ISO10646-1
SIZE -1 72 72
FONTBOUNDINGBOX 16 29 0 -5

STARTPROPERTIES 15
CAP_HEIGHT 24
POINT_SIZE 290
WEIGHT 10
RESOLUTION_X 72
RESOLUTION_Y 72
X_HEIGHT 14
QUAD_WIDTH 16
FAMILY_NAME "ProFont"
WEIGHT_NAME "Medium"
SLANT "R"
CHARSET_REGISTRY "ISO10646"
CHARSET_ENCODING "1"
DEFAULT_CHAR -256
FONT_DESCENT 5
FONT_ASCENT 24
ENDPROPERTIES

CHARS 256

STARTCHAR 0
ENCODING 0
SWIDTH 16000 0
DWIDTH 16 0
BBX 16 29 0 -5
BITMAP
0000
0000
0000
0000
0000
0000
0000
0000
0000
0000
0000
0000
0000
0000
0000
0000
0000
0000
0000
0000
0000
0000
0000
0000
0000
0000
0000
0000
0000
ENDCHAR

STARTCHAR 1
ENCODING 1
SWIDTH 16000 0
DWIDTH 16 0
BBX 16 29 0 -5
BITMAP
0000
0000
0000
0000
0000
0000
0000
0000
0000
0000
0000
0000
0000
0000
0000
0000
0000
0000
0000
0000
0000
0000
0000
0000
0000
0000
0000
0000
0000
ENDCHAR

STARTCHAR 2
ENCODING 2
SWIDTH 16000 0
DWIDTH 16 0
BBX 16 29 0 -5
BITMAP
0000
0000
0000
0000
0000
0000
0000
0000
0000
0000
0000
0000
0000
0000
0000
0000
0000
0000
0000
0000
0000
0000
0000
0000
0000
0000
0000
0000
0000
ENDCHAR

STARTCHAR 3
ENCODING 3
SWIDTH 16000 0
DWIDTH 16 0
BBX 16 29 0 -5
BITMAP
0000
0000
0000
0000
0000
0000
0000
0000
0000
0000
0000
0000
0000
0000
0000
0000
0000
0000
0000
0000
0000
0000
0000
0000
0000
0000
0000
0000
0000
ENDCHAR

STARTCHAR 4
ENCODING 4
SWIDTH 16000 0
DWIDTH 16 0
BBX 16 29 0 -5
BITMAP
0000
0000
0000
0000
0000
0000
0000
0000
0000
0000
0000
0000
0000
0000
0000
0000
0000
0000
0000
0000
0000
0000
0000
0000
0000
0000
0000
0000
0000
ENDCHAR

STARTCHAR 5
ENCODING 5
SWIDTH 16000 0
DWIDTH 16 0
BBX 16 29 0 -5
BITMAP
0000
0000
0000
0000
0000
0000
0000
0000
0000
0000
0000
0000
0000
0000
0000
0000
0000
0000
0000
0000
0000
0000
0000
0000
0000
0000
0000
0000
0000
ENDCHAR

STARTCHAR 6
ENCODING 6
SWIDTH 16000 0
DWIDTH 16 0
BBX 16 29 0 -5
BITMAP
0000
0000
0000
0000
0000
0000
0000
0000
0000
0000
0000
0000
0000
0000
0000
0000
0000
0000
0000
0000
0000
0000
0000
0000
0000
0000
0000
0000
0000
ENDCHAR

STARTCHAR 7
ENCODING 7
SWIDTH 16000 0
DWIDTH 16 0
BBX 16 29 0 -5
BITMAP
0000
0000
0000
0000
0000
0000
0000
0000
0000
0000
0000
0000
0000
0000
0000
0000
0000
0000
0000
0000
0000
0000
0000
0000
0000
0000
0000
0000
0000
ENDCHAR

STARTCHAR 8
ENCODING 8
SWIDTH 16000 0
DWIDTH 16 0
BBX 16 29 0 -5
BITMAP
0000
0000
0000
0000
0000
0000
0000
0000
0000
0000
0000
0000
0000
0000
0000
0000
0000
0000
0000
0000
0000
0000
0000
0000
0000
0000
0000
0000
0000
ENDCHAR

STARTCHAR 9
ENCODING 9
SWIDTH 16000 0
DWIDTH 16 0
BBX 16 29 0 -5
BITMAP
0000
0000
0000
0000
0000
0000
0000
0000
0000
0000
0000
0000
0000
0000
0000
0000
0000
0000
0000
0000
0000
0000
0000
0000
0000
0000
0000
0000
0000
ENDCHAR

STARTCHAR 10
ENCODING 10
SWIDTH 16000 0
DWIDTH 16 0
BBX 16 29 0 -5
BITMAP
0000
0000
0000
0000
0000
0000
0000
0000
0000
0000
0000
0000
0000
0000
0000
0000
0000
0000
0000
0000
0000
0000
0000
0000
0000
0000
0000
0000
0000
ENDCHAR

STARTCHAR 11
ENCODING 11
SWIDTH 16000 0
DWIDTH 16 0
BBX 16 29 0 -5
BITMAP
0000
0000
0000
0000
0000
0000
0000
0000
0000
0000
0000
0000
0000
0000
0000
0000
0000
0000
0000
0000
0000
0000
0000
0000
0000
0000
0000
0000
0000
ENDCHAR

STARTCHAR 12
ENCODING 12
SWIDTH 16000 0
DWIDTH 16 0
BBX 16 29 0 -5
BITMAP
0000
0000
0000
0000
0000
0000
0000
0000
0000
0000
0000
0000
0000
0000
0000
0000
0000
0000
0000
0000
0000
0000
0000
0000
0000
0000
0000
0000
0000
ENDCHAR

STARTCHAR 13
ENCODING 13
SWIDTH 16000 0
DWIDTH 16 0
BBX 16 29 0 -5
BITMAP
0000
0000
0000
0000
0000
0000
0000
0000
0000
0000
0000
0000
0000
0000
0000
0000
0000
0000
0000
0000
0000
0000
0000
0000
0000
0000
0000
0000
0000
ENDCHAR

STARTCHAR 14
ENCODING 14
SWIDTH 16000 0
DWIDTH 16 0
BBX 16 29 0 -5
BITMAP
0000
0000
0000
0000
0000
0000
0000
0000
0000
0000
0000
0000
0000
0000
0000
0000
0000
0000
0000
0000
0000
0000
0000
0000
0000
0000
0000
0000
0000
ENDCHAR

STARTCHAR 15
ENCODING 15
SWIDTH 16000 0
DWIDTH 16 0
BBX 16 29 0 -5
BITMAP
0000
0000
0000
0000
0000
0000
0000
0000
0000
0000
0000
0000
0000
0000
0000
0000
0000
0000
0000
0000
0000
0000
0000
0000
0000
0000
0000
0000
0000
ENDCHAR

STARTCHAR 16
ENCODING 16
SWIDTH 16000 0
DWIDTH 16 0
BBX 16 29 0 -5
BITMAP
0000
0000
0000
0000
0000
0000
0000
0000
0000
0000
0000
0000
0000
0000
0000
0000
0000
0000
0000
0000
0000
0000
0000
0000
0000
0000
0000
0000
0000
ENDCHAR

STARTCHAR 17
ENCODING 17
SWIDTH 16000 0
DWIDTH 16 0
BBX 16 29 0 -5
BITMAP
0000
0000
0000
0000
0000
0000
0000
0000
0000
0000
0000
0000
0000
0000
0000
0000
0000
0000
0000
0000
0000
0000
0000
0000
0000
0000
0000
0000
0000
ENDCHAR

STARTCHAR 18
ENCODING 18
SWIDTH 16000 0
DWIDTH 16 0
BBX 16 29 0 -5
BITMAP
0000
0000
0000
0000
0000
0000
0000
0000
0000
0000
0000
0000
0000
0000
0000
0000
0000
0000
0000
0000
0000
0000
0000
0000
0000
0000
0000
0000
0000
ENDCHAR

STARTCHAR 19
ENCODING 19
SWIDTH 16000 0
DWIDTH 16 0
BBX 16 29 0 -5
BITMAP
0000
0000
0000
0000
0000
0000
0000
0000
0000
0000
0000
0000
0000
0000
0000
0000
0000
0000
0000
0000
0000
0000
0000
0000
0000
0000
0000
0000
0000
ENDCHAR

STARTCHAR 20
ENCODING 20
SWIDTH 16000 0
DWIDTH 16 0
BBX 16 29 0 -5
BITMAP
0000
0000
0000
0000
0000
0000
0000
0000
0000
0000
0000
0000
0000
0000
0000
0000
0000
0000
0000
0000
0000
0000
0000
0000
0000
0000
0000
0000
0000
ENDCHAR

STARTCHAR 21
ENCODING 21
SWIDTH 16000 0
DWIDTH 16 0
BBX 16 29 0 -5
BITMAP
0000
0000
0000
0000
0000
0000
0000
0000
0000
0000
0000
0000
0000
0000
0000
0000
0000
0000
0000
0000
0000
0000
0000
0000
0000
0000
0000
0000
0000
ENDCHAR

STARTCHAR 22
ENCODING 22
SWIDTH 16000 0
DWIDTH 16 0
BBX 16 29 0 -5
BITMAP
0000
0000
0000
0000
0000
0000
0000
0000
0000
0000
0000
0000
0000
0000
0000
0000
0000
0000
0000
0000
0000
0000
0000
0000
0000
0000
0000
0000
0000
ENDCHAR

STARTCHAR 23
ENCODING 23
SWIDTH 16000 0
DWIDTH 16 0
BBX 16 29 0 -5
BITMAP
0000
0000
0000
0000
0000
0000
0000
0000
0000
0000
0000
0000
0000
0000
0000
0000
0000
0000
0000
0000
0000
0000
0000
0000
0000
0000
0000
0000
0000
ENDCHAR

STARTCHAR 24
ENCODING 24
SWIDTH 16000 0
DWIDTH 16 0
BBX 16 29 0 -5
BITMAP
0000
0000
0000
0000
0000
0000
0000
0000
0000
0000
0000
0000
0000
0000
0000
0000
0000
0000
0000
0000
0000
0000
0000
0000
0000
0000
0000
0000
0000
ENDCHAR

STARTCHAR 25
ENCODING 25
SWIDTH 16000 0
DWIDTH 16 0
BBX 16 29 0 -5
BITMAP
0000
0000
0000
0000
0000
0000
0000
0000
0000
0000
0000
0000
0000
0000
0000
0000
0000
0000
0000
0000
0000
0000
0000
0000
0000
0000
0000
0000
0000
ENDCHAR

STARTCHAR 26
ENCODING 26
SWIDTH 16000 0
DWIDTH 16 0
BBX 16 29 0 -5
BITMAP
0000
0000
0000
0000
0000
0000
0000
0000
0000
0000
0000
0000
0000
0000
0000
0000
0000
0000
0000
0000
0000
0000
0000
0000
0000
0000
0000
0000
0000
ENDCHAR

STARTCHAR 27
ENCODING 27
SWIDTH 16000 0
DWIDTH 16 0
BBX 16 29 0 -5
BITMAP
0000
0000
0000
0000
0000
0000
0000
0000
0000
0000
0000
0000
0000
0000
0000
0000
0000
0000
0000
0000
0000
0000
0000
0000
0000
0000
0000
0000
0000
ENDCHAR

STARTCHAR 28
ENCODING 28
SWIDTH 16000 0
DWIDTH 16 0
BBX 16 29 0 -5
BITMAP
0000
0000
0000
0000
0000
0000
0000
0000
0000
0000
0000
0000
0000
0000
0000
0000
0000
0000
0000
0000
0000
0000
0000
0000
0000
0000
0000
0000
0000
ENDCHAR

STARTCHAR 29
ENCODING 29
SWIDTH 16000 0
DWIDTH 16 0
BBX 16 29 0 -5
BITMAP
0000
0000
0000
0000
0000
0000
0000
0000
0000
0000
0000
0000
0000
0000
0000
0000
0000
0000
0000
0000
0000
0000
0000
0000
0000
0000
0000
0000
0000
ENDCHAR

STARTCHAR 30
ENCODING 30
SWIDTH 16000 0
DWIDTH 16 0
BBX 16 29 0 -5
BITMAP
0000
0000
0000
0000
0000
0000
0000
0000
0000
0000
0000
0000
0000
0000
0000
0000
0000
0000
0000
0000
0000
0000
0000
0000
0000
0000
0000
0000
0000
ENDCHAR

STARTCHAR 31
ENCODING 31
SWIDTH 16000 0
DWIDTH 16 0
BBX 16 29 0 -5
BITMAP
0000
0000
0000
0000
0000
0000
0000
0000
0000
0000
0000
0000
0000
0000
0000
0000
0000
0000
0000
0000
0000
0000
0000
0000
0000
0000
0000
0000
0000
ENDCHAR

STARTCHAR 32
ENCODING 32
SWIDTH 16000 0
DWIDTH 16 0
BBX 16 29 0 -5
BITMAP
0000
0000
0000
0000
0000
0000
0000
0000
0000
0000
0000
0000
0000
0000
0000
0000
0000
0000
0000
0000
0000
0000
0000
0000
0000
0000
0000
0000
0000
ENDCHAR

STARTCHAR 33
ENCODING 33
SWIDTH 16000 0
DWIDTH 16 0
BBX 16 29 0 -5
BITMAP
0000
0000
0000
0000
0000
0700
0700
0700
0700
0700
0700
0700
0700
0700
0700
0700
0700
0700
0700
0000
0000
0700
0700
0700
0000
0000
0000
0000
0000
ENDCHAR

STARTCHAR 34
ENCODING 34
SWIDTH 16000 0
DWIDTH 16 0
BBX 16 29 0 -5
BITMAP
0000
0000
38E0
38E0
38E0
38E0
38E0
38E0
38E0
38E0
38E0
0000
0000
0000
0000
0000
0000
0000
0000
0000
0000
0000
0000
0000
0000
0000
0000
0000
0000
ENDCHAR

STARTCHAR 35
ENCODING 35
SWIDTH 16000 0
DWIDTH 16 0
BBX 16 29 0 -5
BITMAP
0000
0000
0000
0000
1C70
1C70
1C70
FFFE
FFFE
FFFE
1C70
1C70
1C70
FFFE
FFFE
FFFE
1C70
1C70
1C70
0000
0000
0000
0000
0000
0000
0000
0000
0000
0000
ENDCHAR

STARTCHAR 36
ENCODING 36
SWIDTH 16000 0
DWIDTH 16 0
BBX 16 29 0 -5
BITMAP
0000
0000
0700
0700
0700
0F80
3FE0
7FF0
7770
E738
E738
E700
7700
7F80
3FE0
0FF0
0770
0738
E738
E738
7770
7FF0
3FE0
0F80
0700
0700
0700
0000
0000
ENDCHAR

STARTCHAR 37
ENCODING 37
SWIDTH 16000 0
DWIDTH 16 0
BBX 16 29 0 -5
BITMAP
0000
0000
0000
0000
0000
1FFC
3FFC
7FFC
661C
E73C
E778
E7F0
67E0
7FE0
3FC0
1FF0
1F30
3F38
7F38
F738
E330
E3F0
E1E0
E0C0
0000
0000
0000
0000
0000
ENDCHAR

STARTCHAR 38
ENCODING 38
SWIDTH 16000 0
DWIDTH 16 0
BBX 16 29 0 -5
BITMAP
0000
0000
0000
0000
0000
0F00
3FC0
7FE0
70E0
E1E0
E3C0
E780
7F00
7E00
3C00
7E08
7F1C
E7BC
E3F8
E1F0
71F0
7FF8
3FBC
0E18
0000
0000
0000
0000
0000
ENDCHAR

STARTCHAR 39
ENCODING 39
SWIDTH 16000 0
DWIDTH 16 0
BBX 16 29 0 -5
BITMAP
0000
0000
0700
0700
0700
0700
0700
0700
0700
0700
0700
0000
0000
0000
0000
0000
0000
0000
0000
0000
0000
0000
0000
0000
0000
0000
0000
0000
0000
ENDCHAR

STARTCHAR 40
ENCODING 40
SWIDTH 16000 0
DWIDTH 16 0
BBX 16 29 0 -5
BITMAP
0000
0000
0060
00F0
01E0
03C0
0780
0F00
1E00
1C00
1C00
1C00
1C00
1C00
1C00
1C00
1C00
1C00
1C00
1C00
1E00
0F00
0780
03C0
01E0
00F0
0060
0000
0000
ENDCHAR

STARTCHAR 41
ENCODING 41
SWIDTH 16000 0
DWIDTH 16 0
BBX 16 29 0 -5
BITMAP
0000
0000
1800
3C00
1E00
0F00
0780
03C0
01E0
00E0
00E0
00E0
00E0
00E0
00E0
00E0
00E0
00E0
00E0
00E0
01E0
03C0
0780
0F00
1E00
3C00
1800
0000
0000
ENDCHAR

STARTCHAR 42
ENCODING 42
SWIDTH 16000 0
DWIDTH 16 0
BBX 16 29 0 -5
BITMAP
0000
0000
0000
0000
0000
0000
0700
0700
6730
F7F8
7FF0
1FC0
1FC0
7FF0
FFF8
6730
0700
0700
0700
0000
0000
0000
0000
0000
0000
0000
0000
0000
0000
ENDCHAR

STARTCHAR 43
ENCODING 43
SWIDTH 16000 0
DWIDTH 16 0
BBX 16 29 0 -5
BITMAP
0000
0000
0000
0000
0000
0000
0000
0000
0700
0700
0700
0700
0700
FFF8
FFF8
FFF8
0700
0700
0700
0700
0700
0000
0000
0000
0000
0000
0000
0000
0000
ENDCHAR

STARTCHAR 44
ENCODING 44
SWIDTH 16000 0
DWIDTH 16 0
BBX 16 29 0 -5
BITMAP
0000
0000
0000
0000
0000
0000
0000
0000
0000
0000
0000
0000
0000
0000
0000
0000
0000
0000
0700
0F80
0F80
0F80
0780
0380
0380
0780
0F00
1E00
0C00
ENDCHAR

STARTCHAR 45
ENCODING 45
SWIDTH 16000 0
DWIDTH 16 0
BBX 16 29 0 -5
BITMAP
0000
0000
0000
0000
0000
0000
0000
0000
0000
0000
0000
0000
0000
1FE0
1FE0
1FE0
0000
0000
0000
0000
0000
0000
0000
0000
0000
0000
0000
0000
0000
ENDCHAR

STARTCHAR 46
ENCODING 46
SWIDTH 16000 0
DWIDTH 16 0
BBX 16 29 0 -5
BITMAP
0000
0000
0000
0000
0000
0000
0000
0000
0000
0000
0000
0000
0000
0000
0000
0000
0000
0000
0700
0F80
0F80
0F80
0700
0000
0000
0000
0000
0000
0000
ENDCHAR

STARTCHAR 47
ENCODING 47
SWIDTH 16000 0
DWIDTH 16 0
BBX 16 29 0 -5
BITMAP
0000
0000
0000
000E
000E
001C
001C
0038
0038
0070
0070
00E0
00E0
01C0
01C0
0380
0380
0700
0700
0E00
0E00
1C00
1C00
3800
3800
7000
7000
E000
E000
ENDCHAR

STARTCHAR 48
ENCODING 48
SWIDTH 16000 0
DWIDTH 16 0
BBX 16 29 0 -5
BITMAP
0000
0000
0000
0000
0000
0FC0
3FF0
7FF8
7038
E03C
E07C
E0FC
E1FC
E3DC
E79C
EF1C
FE1C
FC1C
F81C
F01C
7038
7FF8
3FF0
0FC0
0000
0000
0000
0000
0000
ENDCHAR

STARTCHAR 49
ENCODING 49
SWIDTH 16000 0
DWIDTH 16 0
BBX 16 29 0 -5
BITMAP
0000
0000
0000
0000
0000
0700
0700
0F00
7F00
7F00
7F00
0700
0700
0700
0700
0700
0700
0700
0700
0700
0700
FFF8
FFF8
FFF8
0000
0000
0000
0000
0000
ENDCHAR

STARTCHAR 50
ENCODING 50
SWIDTH 16000 0
DWIDTH 16 0
BBX 16 29 0 -5
BITMAP
0000
0000
0000
0000
0000
0FC0
3FF0
7FF8
7038
E01C
E01C
001C
0038
0078
00F0
01E0
03C0
0780
0F00
1E00
3C00
7FFC
FFFC
FFFC
0000
0000
0000
0000
0000
ENDCHAR

STARTCHAR 51
ENCODING 51
SWIDTH 16000 0
DWIDTH 16 0
BBX 16 29 0 -5
BITMAP
0000
0000
0000
0000
0000
0FC0
3FF0
7FF8
7038
E01C
E01C
001C
0078
03F0
03E0
03F0
0078
001C
E01C
E01C
7038
7FF8
3FF0
0FC0
0000
0000
0000
0000
0000
ENDCHAR

STARTCHAR 52
ENCODING 52
SWIDTH 16000 0
DWIDTH 16 0
BBX 16 29 0 -5
BITMAP
0000
0000
0000
0000
0000
00E0
01E0
03E0
07E0
0FE0
1EE0
3CE0
78E0
F0E0
E0E0
FFFC
FFFC
FFFC
00E0
00E0
00E0
07FC
07FC
07FC
0000
0000
0000
0000
0000
ENDCHAR

STARTCHAR 53
ENCODING 53
SWIDTH 16000 0
DWIDTH 16 0
BBX 16 29 0 -5
BITMAP
0000
0000
0000
0000
0000
FFFC
FFFC
FFFC
E000
E000
FFC0
FFF0
FFF8
0038
001C
001C
001C
001C
E01C
E01C
7038
7FF8
3FF0
0FC0
0000
0000
0000
0000
0000
ENDCHAR

STARTCHAR 54
ENCODING 54
SWIDTH 16000 0
DWIDTH 16 0
BBX 16 29 0 -5
BITMAP
0000
0000
0000
0000
0000
0FE0
3FE0
7FE0
7000
E000
FFC0
FFF0
FFF8
E038
E01C
E01C
E01C
E01C
E01C
E01C
7038
7FF8
3FF0
0FC0
0000
0000
0000
0000
0000
ENDCHAR

STARTCHAR 55
ENCODING 55
SWIDTH 16000 0
DWIDTH 16 0
BBX 16 29 0 -5
BITMAP
0000
0000
0000
0000
0000
FFFC
FFFC
FFFC
001C
001C
001C
003C
0078
00F0
01E0
03C0
0780
0700
0700
0700
0700
0700
0700
0700
0000
0000
0000
0000
0000
ENDCHAR

STARTCHAR 56
ENCODING 56
SWIDTH 16000 0
DWIDTH 16 0
BBX 16 29 0 -5
BITMAP
0000
0000
0000
0000
0000
0FC0
3FF0
7FF8
7038
E01C
E01C
E01C
7878
3FF0
1FE0
3FF0
7878
E01C
E01C
E01C
7038
7FF8
3FF0
0FC0
0000
0000
0000
0000
0000
ENDCHAR

STARTCHAR 57
ENCODING 57
SWIDTH 16000 0
DWIDTH 16 0
BBX 16 29 0 -5
BITMAP
0000
0000
0000
0000
0000
0FC0
3FF0
7FF8
7038
E01C
E01C
E01C
E01C
E01C
E01C
701C
7FFC
3FFC
0FFC
001C
0038
1FF8
1FF0
1FC0
0000
0000
0000
0000
0000
ENDCHAR

STARTCHAR 58
ENCODING 58
SWIDTH 16000 0
DWIDTH 16 0
BBX 16 29 0 -5
BITMAP
0000
0000
0000
0000
0000
0000
0000
0000
0000
0000
0700
0F80
0F80
0F80
0700
0000
0000
0000
0700
0F80
0F80
0F80
0700
0000
0000
0000
0000
0000
0000
ENDCHAR

STARTCHAR 59
ENCODING 59
SWIDTH 16000 0
DWIDTH 16 0
BBX 16 29 0 -5
BITMAP
0000
0000
0000
0000
0000
0000
0000
0000
0000
0000
0700
0F80
0F80
0F80
0700
0000
0000
0000
0700
0F80
0F80
0F80
0780
0380
0380
0780
0F00
1E00
0C00
ENDCHAR

STARTCHAR 60
ENCODING 60
SWIDTH 16000 0
DWIDTH 16 0
BBX 16 29 0 -5
BITMAP
0000
0000
0000
0000
0000
0018
003C
0078
00F0
01E0
03C0
0780
0F00
1E00
3C00
1E00
0F00
0780
03C0
01E0
00F0
0078
003C
0018
0000
0000
0000
0000
0000
ENDCHAR

STARTCHAR 61
ENCODING 61
SWIDTH 16000 0
DWIDTH 16 0
BBX 16 29 0 -5
BITMAP
0000
0000
0000
0000
0000
0000
0000
0000
0000
0000
FFFC
FFFC
FFFC
0000
0000
0000
FFFC
FFFC
FFFC
0000
0000
0000
0000
0000
0000
0000
0000
0000
0000
ENDCHAR

STARTCHAR 62
ENCODING 62
SWIDTH 16000 0
DWIDTH 16 0
BBX 16 29 0 -5
BITMAP
0000
0000
0000
0000
0000
1800
3C00
1E00
0F00
0780
03C0
01E0
00F0
0078
003C
0078
00F0
01E0
03C0
0780
0F00
1E00
3C00
1800
0000
0000
0000
0000
0000
ENDCHAR

STARTCHAR 63
ENCODING 63
SWIDTH 16000 0
DWIDTH 16 0
BBX 16 29 0 -5
BITMAP
0000
0000
0000
0000
0000
0FC0
3FF0
7FF8
7038
E01C
E01C
001C
003C
0078
00F0
01E0
03C0
0780
0700
0000
0000
0700
0700
0700
0000
0000
0000
0000
0000
ENDCHAR

STARTCHAR 64
ENCODING 64
SWIDTH 16000 0
DWIDTH 16 0
BBX 16 29 0 -5
BITMAP
0000
0000
0000
0000
0000
0FC0
3FF0
7FF8
7038
E01C
E1FC
E3FC
E7FC
E71C
E71C
E71C
E7FC
E3F8
E1F0
E000
7000
7FFC
3FFC
0FFC
0000
0000
0000
0000
0000
ENDCHAR

STARTCHAR 65
ENCODING 65
SWIDTH 16000 0
DWIDTH 16 0
BBX 16 29 0 -5
BITMAP
0000
0000
0000
0000
0000
0780
0780
0FC0
0FC0
1CE0
1CE0
3870
3870
7038
7038
E01C
FFFC
FFFC
FFFC
E01C
E01C
E01C
E01C
E01C
0000
0000
0000
0000
0000
ENDCHAR

STARTCHAR 66
ENCODING 66
SWIDTH 16000 0
DWIDTH 16 0
BBX 16 29 0 -5
BITMAP
0000
0000
0000
0000
0000
FFC0
FFF0
FFF8
E038
E01C
E01C
E01C
E078
FFF0
FFE0
FFF0
E078
E01C
E01C
E01C
E038
FFF8
FFF0
FFC0
0000
0000
0000
0000
0000
ENDCHAR

STARTCHAR 67
ENCODING 67
SWIDTH 16000 0
DWIDTH 16 0
BBX 16 29 0 -5
BITMAP
0000
0000
0000
0000
0000
0FC0
3FF0
7FF8
7038
E01C
E01C
E000
E000
E000
E000
E000
E000
E000
E01C
E01C
7038
7FF8
3FF0
0FC0
0000
0000
0000
0000
0000
ENDCHAR

STARTCHAR 68
ENCODING 68
SWIDTH 16000 0
DWIDTH 16 0
BBX 16 29 0 -5
BITMAP
0000
0000
0000
0000
0000
FFC0
FFF0
FFF8
E038
E01C
E01C
E01C
E01C
E01C
E01C
E01C
E01C
E01C
E01C
E01C
E038
FFF8
FFF0
FFC0
0000
0000
0000
0000
0000
ENDCHAR

STARTCHAR 69
ENCODING 69
SWIDTH 16000 0
DWIDTH 16 0
BBX 16 29 0 -5
BITMAP
0000
0000
0000
0000
0000
FFFC
FFFC
FFFC
E000
E000
E000
E000
E000
FFE0
FFE0
FFE0
E000
E000
E000
E000
E000
FFFC
FFFC
FFFC
0000
0000
0000
0000
0000
ENDCHAR

STARTCHAR 70
ENCODING 70
SWIDTH 16000 0
DWIDTH 16 0
BBX 16 29 0 -5
BITMAP
0000
0000
0000
0000
0000
FFFC
FFFC
FFFC
E000
E000
E000
E000
E000
FFE0
FFE0
FFE0
E000
E000
E000
E000
E000
E000
E000
E000
0000
0000
0000
0000
0000
ENDCHAR

STARTCHAR 71
ENCODING 71
SWIDTH 16000 0
DWIDTH 16 0
BBX 16 29 0 -5
BITMAP
0000
0000
0000
0000
0000
0FC0
3FF0
7FF8
7038
E01C
E01C
E000
E000
E0FC
E0FC
E0FC
E01C
E01C
E01C
E01C
7038
7FF8
3FF0
0FC0
0000
0000
0000
0000
0000
ENDCHAR

STARTCHAR 72
ENCODING 72
SWIDTH 16000 0
DWIDTH 16 0
BBX 16 29 0 -5
BITMAP
0000
0000
0000
0000
0000
E01C
E01C
E01C
E01C
E01C
E01C
E01C
E01C
FFFC
FFFC
FFFC
E01C
E01C
E01C
E01C
E01C
E01C
E01C
E01C
0000
0000
0000
0000
0000
ENDCHAR

STARTCHAR 73
ENCODING 73
SWIDTH 16000 0
DWIDTH 16 0
BBX 16 29 0 -5
BITMAP
0000
0000
0000
0000
0000
FFF8
FFF8
FFF8
0700
0700
0700
0700
0700
0700
0700
0700
0700
0700
0700
0700
0700
FFF8
FFF8
FFF8
0000
0000
0000
0000
0000
ENDCHAR

STARTCHAR 74
ENCODING 74
SWIDTH 16000 0
DWIDTH 16 0
BBX 16 29 0 -5
BITMAP
0000
0000
0000
0000
0000
001C
001C
001C
001C
001C
001C
001C
001C
001C
001C
001C
E01C
E01C
E01C
E01C
7038
7FF8
3FF0
0FC0
0000
0000
0000
0000
0000
ENDCHAR

STARTCHAR 75
ENCODING 75
SWIDTH 16000 0
DWIDTH 16 0
BBX 16 29 0 -5
BITMAP
0000
0000
0000
0000
0000
E038
E078
E0F0
E1E0
E3C0
E780
EF00
FE00
FC00
F800
FC00
FE00
EF00
E780
E3C0
E1E0
E0F0
E078
E038
0000
0000
0000
0000
0000
ENDCHAR

STARTCHAR 76
ENCODING 76
SWIDTH 16000 0
DWIDTH 16 0
BBX 16 29 0 -5
BITMAP
0000
0000
0000
0000
0000
E000
E000
E000
E000
E000
E000
E000
E000
E000
E000
E000
E000
E000
E000
E000
E000
FFFC
FFFC
FFFC
0000
0000
0000
0000
0000
ENDCHAR

STARTCHAR 77
ENCODING 77
SWIDTH 16000 0
DWIDTH 16 0
BBX 16 29 0 -5
BITMAP
0000
0000
0000
0000
0000
E00E
F01E
F83E
FC7E
FEFE
EFEE
E7CE
E38E
E38E
E38E
E38E
E00E
E00E
E00E
E00E
E00E
E00E
E00E
E00E
0000
0000
0000
0000
0000
ENDCHAR

STARTCHAR 78
ENCODING 78
SWIDTH 16000 0
DWIDTH 16 0
BBX 16 29 0 -5
BITMAP
0000
0000
0000
0000
0000
E01C
F01C
F81C
FC1C
FE1C
EF1C
E79C
E3DC
E1FC
E0FC
E07C
E03C
E01C
E01C
E01C
E01C
E01C
E01C
E01C
0000
0000
0000
0000
0000
ENDCHAR

STARTCHAR 79
ENCODING 79
SWIDTH 16000 0
DWIDTH 16 0
BBX 16 29 0 -5
BITMAP
0000
0000
0000
0000
0000
0FC0
3FF0
7FF8
7038
E01C
E01C
E01C
E01C
E01C
E01C
E01C
E01C
E01C
E01C
E01C
7038
7FF8
3FF0
0FC0
0000
0000
0000
0000
0000
ENDCHAR

STARTCHAR 80
ENCODING 80
SWIDTH 16000 0
DWIDTH 16 0
BBX 16 29 0 -5
BITMAP
0000
0000
0000
0000
0000
FFC0
FFF0
FFF8
E038
E01C
E01C
E01C
E038
FFF8
FFF0
FFC0
E000
E000
E000
E000
E000
E000
E000
E000
0000
0000
0000
0000
0000
ENDCHAR

STARTCHAR 81
ENCODING 81
SWIDTH 16000 0
DWIDTH 16 0
BBX 16 29 0 -5
BITMAP
0000
0000
0000
0000
0000
0FC0
3FF0
7FF8
7038
E01C
E01C
E01C
E01C
E01C
E01C
E01C
E01C
E01C
E61C
EF1C
77F8
7FF8
3FF0
0FF0
0078
003C
0018
0000
0000
ENDCHAR

STARTCHAR 82
ENCODING 82
SWIDTH 16000 0
DWIDTH 16 0
BBX 16 29 0 -5
BITMAP
0000
0000
0000
0000
0000
FFC0
FFF0
FFF8
E038
E01C
E01C
E01C
E078
FFF0
FFE0
FFF0
E078
E01C
E01C
E01C
E01C
E01C
E01C
E01C
0000
0000
0000
0000
0000
ENDCHAR

STARTCHAR 83
ENCODING 83
SWIDTH 16000 0
DWIDTH 16 0
BBX 16 29 0 -5
BITMAP
0000
0000
0000
0000
0000
0FC0
3FF0
7FF8
7038
E01C
E01C
E000
7000
7FC0
3FF0
0FF8
0038
001C
E01C
E01C
7038
7FF8
3FF0
0FC0
0000
0000
0000
0000
0000
ENDCHAR

STARTCHAR 84
ENCODING 84
SWIDTH 16000 0
DWIDTH 16 0
BBX 16 29 0 -5
BITMAP
0000
0000
0000
0000
0000
FFF8
FFF8
FFF8
0700
0700
0700
0700
0700
0700
0700
0700
0700
0700
0700
0700
0700
0700
0700
0700
0000
0000
0000
0000
0000
ENDCHAR

STARTCHAR 85
ENCODING 85
SWIDTH 16000 0
DWIDTH 16 0
BBX 16 29 0 -5
BITMAP
0000
0000
0000
0000
0000
E01C
E01C
E01C
E01C
E01C
E01C
E01C
E01C
E01C
E01C
E01C
E01C
E01C
E01C
E01C
7038
7FF8
3FF0
0FC0
0000
0000
0000
0000
0000
ENDCHAR

STARTCHAR 86
ENCODING 86
SWIDTH 16000 0
DWIDTH 16 0
BBX 16 29 0 -5
BITMAP
0000
0000
0000
0000
0000
E01C
E01C
E01C
E01C
E01C
E01C
E01C
7038
7038
3870
3870
1CE0
1CE0
0FC0
0FC0
0780
0780
0300
0300
0000
0000
0000
0000
0000
ENDCHAR

STARTCHAR 87
ENCODING 87
SWIDTH 16000 0
DWIDTH 16 0
BBX 16 29 0 -5
BITMAP
0000
0000
0000
0000
0000
E00E
E00E
E00E
E00E
E00E
E00E
E00E
E00E
E38E
E38E
E38E
E38E
E7CE
EFFE
FEFE
FC7E
F83E
F01E
E00E
0000
0000
0000
0000
0000
ENDCHAR

STARTCHAR 88
ENCODING 88
SWIDTH 16000 0
DWIDTH 16 0
BBX 16 29 0 -5
BITMAP
0000
0000
0000
0000
0000
E01C
E01C
E01C
E01C
F03C
7878
3CF0
1FE0
0FC0
0780
0FC0
1FE0
3CF0
7878
F03C
E01C
E01C
E01C
E01C
0000
0000
0000
0000
0000
ENDCHAR

STARTCHAR 89
ENCODING 89
SWIDTH 16000 0
DWIDTH 16 0
BBX 16 29 0 -5
BITMAP
0000
0000
0000
0000
0000
E038
E038
E038
E038
E038
E038
E038
F078
78F0
3DE0
1FC0
0F80
0700
0700
0700
0700
0700
0700
0700
0000
0000
0000
0000
0000
ENDCHAR

STARTCHAR 90
ENCODING 90
SWIDTH 16000 0
DWIDTH 16 0
BBX 16 29 0 -5
BITMAP
0000
0000
0000
0000
0000
FFFC
FFFC
FFFC
001C
003C
0078
00F0
01E0
03C0
0780
0F00
1E00
3C00
7800
F000
E000
FFFC
FFFC
FFFC
0000
0000
0000
0000
0000
ENDCHAR

STARTCHAR 91
ENCODING 91
SWIDTH 16000 0
DWIDTH 16 0
BBX 16 29 0 -5
BITMAP
0000
0000
07E0
07E0
07E0
0700
0700
0700
0700
0700
0700
0700
0700
0700
0700
0700
0700
0700
0700
0700
0700
0700
0700
0700
07E0
07E0
07E0
0000
0000
ENDCHAR

STARTCHAR 92
ENCODING 92
SWIDTH 16000 0
DWIDTH 16 0
BBX 16 29 0 -5
BITMAP
0000
0000
0000
7000
7000
3800
3800
1C00
1C00
0E00
0E00
0700
0700
0380
0380
01C0
01C0
00E0
00E0
0070
0070
0038
0038
001C
001C
000E
000E
0007
0007
ENDCHAR

STARTCHAR 93
ENCODING 93
SWIDTH 16000 0
DWIDTH 16 0
BBX 16 29 0 -5
BITMAP
0000
0000
3F00
3F00
3F00
0700
0700
0700
0700
0700
0700
0700
0700
0700
0700
0700
0700
0700
0700
0700
0700
0700
0700
0700
3F00
3F00
3F00
0000
0000
ENDCHAR

STARTCHAR 94
ENCODING 94
SWIDTH 16000 0
DWIDTH 16 0
BBX 16 29 0 -5
BITMAP
0000
0000
0000
0000
0000
0300
0780
0FC0
1FE0
3CF0
7878
F03C
6018
0000
0000
0000
0000
0000
0000
0000
0000
0000
0000
0000
0000
0000
0000
0000
0000
ENDCHAR

STARTCHAR 95
ENCODING 95
SWIDTH 16000 0
DWIDTH 16 0
BBX 16 29 0 -5
BITMAP
0000
0000
0000
0000
0000
0000
0000
0000
0000
0000
0000
0000
0000
0000
0000
0000
0000
0000
0000
0000
0000
0000
0000
0000
0000
0000
FFFF
FFFF
FFFF
ENDCHAR

STARTCHAR 96
ENCODING 96
SWIDTH 16000 0
DWIDTH 16 0
BBX 16 29 0 -5
BITMAP
0000
0000
0000
1800
3C00
1E00
0F00
0780
0300
0000
0000
0000
0000
0000
0000
0000
0000
0000
0000
0000
0000
0000
0000
0000
0000
0000
0000
0000
0000
ENDCHAR

STARTCHAR 97
ENCODING 97
SWIDTH 16000 0
DWIDTH 16 0
BBX 16 29 0 -5
BITMAP
0000
0000
0000
0000
0000
0000
0000
0000
0000
0000
0FFC
3FFC
7FFC
701C
E01C
E01C
E01C
E01C
E03C
E07C
71FC
7FDC
3F9C
0E1C
0000
0000
0000
0000
0000
ENDCHAR

STARTCHAR 98
ENCODING 98
SWIDTH 16000 0
DWIDTH 16 0
BBX 16 29 0 -5
BITMAP
0000
0000
0000
0000
0000
E000
E000
E000
E000
E000
FFC0
FFF0
FFF8
E038
E01C
E01C
E01C
E01C
E01C
E01C
E038
FFF8
FFF0
FFC0
0000
0000
0000
0000
0000
ENDCHAR

STARTCHAR 99
ENCODING 99
SWIDTH 16000 0
DWIDTH 16 0
BBX 16 29 0 -5
BITMAP
0000
0000
0000
0000
0000
0000
0000
0000
0000
0000
0FC0
3FF0
7FF8
7038
E01C
E01C
E000
E000
E000
E000
7000
7FFC
3FFC
0FFC
0000
0000
0000
0000
0000
ENDCHAR

STARTCHAR 100
ENCODING 100
SWIDTH 16000 0
DWIDTH 16 0
BBX 16 29 0 -5
BITMAP
0000
0000
0000
0000
0000
001C
001C
001C
001C
001C
0FFC
3FFC
7FFC
701C
E01C
E01C
E01C
E01C
E01C
E01C
701C
7FFC
3FFC
0FFC
0000
0000
0000
0000
0000
ENDCHAR

STARTCHAR 101
ENCODING 101
SWIDTH 16000 0
DWIDTH 16 0
BBX 16 29 0 -5
BITMAP
0000
0000
0000
0000
0000
0000
0000
0000
0000
0000
0FC0
3FF0
7FF8
7038
E01C
E01C
FFFC
FFFC
FFFC
E000
7000
7FFC
3FFC
0FFC
0000
0000
0000
0000
0000
ENDCHAR

STARTCHAR 102
ENCODING 102
SWIDTH 16000 0
DWIDTH 16 0
BBX 16 29 0 -5
BITMAP
0000
0000
0000
0000
0000
0078
01F8
03F8
0380
0700
3FE0
3FE0
3FE0
0700
0700
0700
0700
0700
0700
0700
0700
0700
0700
0700
0000
0000
0000
0000
0000
ENDCHAR

STARTCHAR 103
ENCODING 103
SWIDTH 16000 0
DWIDTH 16 0
BBX 16 29 0 -5
BITMAP
0000
0000
0000
0000
0000
0000
0000
0000
0000
0000
0FFC
3FFC
7FFC
701C
E01C
E01C
E01C
E01C
E01C
E01C
701C
7FFC
3FFC
0FFC
001C
0038
1FF8
1FF0
1FC0
ENDCHAR

STARTCHAR 104
ENCODING 104
SWIDTH 16000 0
DWIDTH 16 0
BBX 16 29 0 -5
BITMAP
0000
0000
0000
0000
0000
E000
E000
E000
E000
E000
FFC0
FFF0
FFF8
E038
E01C
E01C
E01C
E01C
E01C
E01C
E01C
E01C
E01C
E01C
0000
0000
0000
0000
0000
ENDCHAR

STARTCHAR 105
ENCODING 105
SWIDTH 16000 0
DWIDTH 16 0
BBX 16 29 0 -5
BITMAP
0000
0000
0000
0000
0000
0700
0700
0700
0000
0000
3F00
3F00
3F00
0700
0700
0700
0700
0700
0700
0700
0700
3FE0
3FE0
3FE0
0000
0000
0000
0000
0000
ENDCHAR

STARTCHAR 106
ENCODING 106
SWIDTH 16000 0
DWIDTH 16 0
BBX 16 29 0 -5
BITMAP
0000
0000
0000
0000
0000
0700
0700
0700
0000
0000
3F00
3F00
3F00
0700
0700
0700
0700
0700
0700
0700
0700
0700
0700
0700
0700
0E00
FE00
FC00
F000
ENDCHAR

STARTCHAR 107
ENCODING 107
SWIDTH 16000 0
DWIDTH 16 0
BBX 16 29 0 -5
BITMAP
0000
0000
0000
0000
0000
E000
E000
E000
E000
E000
E078
E0F0
E1E0
E3C0
E780
EF00
FF00
FF80
FBC0
F1E0
E0F0
E078
E03C
E01C
0000
0000
0000
0000
0000
ENDCHAR

STARTCHAR 108
ENCODING 108
SWIDTH 16000 0
DWIDTH 16 0
BBX 16 29 0 -5
BITMAP
0000
0000
0000
0000
0000
3F00
3F00
3F00
0700
0700
0700
0700
0700
0700
0700
0700
0700
0700
0700
0700
0700
3FE0
3FE0
3FE0
0000
0000
0000
0000
0000
ENDCHAR

STARTCHAR 109
ENCODING 109
SWIDTH 16000 0
DWIDTH 16 0
BBX 16 29 0 -5
BITMAP
0000
0000
0000
0000
0000
0000
0000
0000
0000
0000
FFE0
FFF8
FFFC
E39C
E38E
E38E
E38E
E38E
E38E
E38E
E38E
E38E
E38E
E38E
0000
0000
0000
0000
0000
ENDCHAR

STARTCHAR 110
ENCODING 110
SWIDTH 16000 0
DWIDTH 16 0
BBX 16 29 0 -5
BITMAP
0000
0000
0000
0000
0000
0000
0000
0000
0000
0000
E1C0
E7F0
EFF8
FE38
F81C
F01C
E01C
E01C
E01C
E01C
E01C
E01C
E01C
E01C
0000
0000
0000
0000
0000
ENDCHAR

STARTCHAR 111
ENCODING 111
SWIDTH 16000 0
DWIDTH 16 0
BBX 16 29 0 -5
BITMAP
0000
0000
0000
0000
0000
0000
0000
0000
0000
0000
0FC0
3FF0
7FF8
7038
E01C
E01C
E01C
E01C
E01C
E01C
7038
7FF8
3FF0
0FC0
0000
0000
0000
0000
0000
ENDCHAR

STARTCHAR 112
ENCODING 112
SWIDTH 16000 0
DWIDTH 16 0
BBX 16 29 0 -5
BITMAP
0000
0000
0000
0000
0000
0000
0000
0000
0000
0000
FFC0
FFF0
FFF8
E038
E01C
E01C
E01C
E01C
E01C
E01C
E038
FFF8
FFF0
FFC0
E000
E000
E000
E000
E000
ENDCHAR

STARTCHAR 113
ENCODING 113
SWIDTH 16000 0
DWIDTH 16 0
BBX 16 29 0 -5
BITMAP
0000
0000
0000
0000
0000
0000
0000
0000
0000
0000
0FFC
3FFC
7FFC
701C
E01C
E01C
E01C
E01C
E01C
E01C
701C
7FFC
3FFC
0FFC
001C
001C
001C
001C
001C
ENDCHAR

STARTCHAR 114
ENCODING 114
SWIDTH 16000 0
DWIDTH 16 0
BBX 16 29 0 -5
BITMAP
0000
0000
0000
0000
0000
0000
0000
0000
0000
0000
E1C0
E7F0
EFF8
FE38
F81C
F01C
E000
E000
E000
E000
E000
E000
E000
E000
0000
0000
0000
0000
0000
ENDCHAR

STARTCHAR 115
ENCODING 115
SWIDTH 16000 0
DWIDTH 16 0
BBX 16 29 0 -5
BITMAP
0000
0000
0000
0000
0000
0000
0000
0000
0000
0000
0FFC
3FFC
7FFC
F000
E000
FFC0
7FF0
1FF8
003C
001C
003C
FFF8
FFF0
FFC0
0000
0000
0000
0000
0000
ENDCHAR

STARTCHAR 116
ENCODING 116
SWIDTH 16000 0
DWIDTH 16 0
BBX 16 29 0 -5
BITMAP
0000
0000
0000
0000
0000
0700
0700
0700
0700
0700
3FE0
3FE0
3FE0
0700
0700
0700
0700
0700
0700
0700
0380
03F8
01F8
0078
0000
0000
0000
0000
0000
ENDCHAR

STARTCHAR 117
ENCODING 117
SWIDTH 16000 0
DWIDTH 16 0
BBX 16 29 0 -5
BITMAP
0000
0000
0000
0000
0000
0000
0000
0000
0000
0000
E01C
E01C
E01C
E01C
E01C
E01C
E01C
E01C
E03C
E07C
71FC
7FDC
3F9C
0E1C
0000
0000
0000
0000
0000
ENDCHAR

STARTCHAR 118
ENCODING 118
SWIDTH 16000 0
DWIDTH 16 0
BBX 16 29 0 -5
BITMAP
0000
0000
0000
0000
0000
0000
0000
0000
0000
0000
E01C
E01C
E01C
E01C
E01C
7038
7038
3870
3870
1CE0
1CE0
0FC0
0FC0
0780
0000
0000
0000
0000
0000
ENDCHAR

STARTCHAR 119
ENCODING 119
SWIDTH 16000 0
DWIDTH 16 0
BBX 16 29 0 -5
BITMAP
0000
0000
0000
0000
0000
0000
0000
0000
0000
0000
E38E
E38E
E38E
E38E
E38E
E38E
E38E
E38E
E38E
E38E
F7DE
7FFC
7EFC
1C70
0000
0000
0000
0000
0000
ENDCHAR

STARTCHAR 120
ENCODING 120
SWIDTH 16000 0
DWIDTH 16 0
BBX 16 29 0 -5
BITMAP
0000
0000
0000
0000
0000
0000
0000
0000
0000
0000
E01C
E01C
F03C
7878
3CF0
1FE0
0FC0
0FC0
1FE0
3CF0
7878
F03C
E01C
E01C
0000
0000
0000
0000
0000
ENDCHAR

STARTCHAR 121
ENCODING 121
SWIDTH 16000 0
DWIDTH 16 0
BBX 16 29 0 -5
BITMAP
0000
0000
0000
0000
0000
0000
0000
0000
0000
0000
E01C
E01C
E01C
E01C
E01C
E01C
E01C
E01C
E01C
E01C
701C
7FFC
3FFC
0FFC
001C
0038
1FF8
1FF0
1FC0
ENDCHAR

STARTCHAR 122
ENCODING 122
SWIDTH 16000 0
DWIDTH 16 0
BBX 16 29 0 -5
BITMAP
0000
0000
0000
0000
0000
0000
0000
0000
0000
0000
FFF8
FFF8
FFF8
00F0
01E0
03C0
0780
0F00
1E00
3C00
7800
FFF8
FFF8
FFF8
0000
0000
0000
0000
0000
ENDCHAR

STARTCHAR 123
ENCODING 123
SWIDTH 16000 0
DWIDTH 16 0
BBX 16 29 0 -5
BITMAP
0070
01F0
01F0
03C0
0380
0380
0380
0380
0380
0380
0380
0380
0780
1F00
1C00
1F00
0780
0380
0380
0380
0380
0380
0380
0380
0380
03C0
01F0
01F0
0070
ENDCHAR

STARTCHAR 124
ENCODING 124
SWIDTH 16000 0
DWIDTH 16 0
BBX 16 29 0 -5
BITMAP
0000
0000
0700
0700
0700
0700
0700
0700
0700
0700
0700
0700
0700
0700
0700
0700
0700
0700
0700
0700
0700
0700
0700
0700
0700
0700
0700
0000
0000
ENDCHAR

STARTCHAR 125
ENCODING 125
SWIDTH 16000 0
DWIDTH 16 0
BBX 16 29 0 -5
BITMAP
3800
3E00
3E00
0F00
0700
0700
0700
0700
0700
0700
0700
0700
0780
03E0
00E0
03E0
0780
0700
0700
0700
0700
0700
0700
0700
0700
0F00
3E00
3E00
3800
ENDCHAR

STARTCHAR 126
ENCODING 126
SWIDTH 16000 0
DWIDTH 16 0
BBX 16 29 0 -5
BITMAP
0000
0000
0000
0000
0000
0000
0000
0000
0000
0000
0000
3C38
7F38
FFF8
E7F0
E1E0
0000
0000
0000
0000
0000
0000
0000
0000
0000
0000
0000
0000
0000
ENDCHAR

STARTCHAR 127
ENCODING 127
SWIDTH 16000 0
DWIDTH 16 0
BBX 16 29 0 -5
BITMAP
0000
0000
0000
0000
0000
0000
0000
0000
0000
0000
0000
0000
0000
0000
0000
0000
0000
0000
0000
0000
0000
0000
0000
0000
0000
0000
0000
0000
0000
ENDCHAR

STARTCHAR 128
ENCODING 128
SWIDTH 16000 0
DWIDTH 16 0
BBX 16 29 0 -5
BITMAP
0000
0000
0000
0000
0000
0000
0000
0000
0000
0000
0000
0000
0000
0000
0000
0000
0000
0000
0000
0000
0000
0000
0000
0000
0000
0000
0000
0000
0000
ENDCHAR

STARTCHAR 129
ENCODING 129
SWIDTH 16000 0
DWIDTH 16 0
BBX 16 29 0 -5
BITMAP
0000
0000
0000
0000
0000
0000
0000
0000
0000
0000
0000
0000
0000
0000
0000
0000
0000
0000
0000
0000
0000
0000
0000
0000
0000
0000
0000
0000
0000
ENDCHAR

STARTCHAR 130
ENCODING 130
SWIDTH 16000 0
DWIDTH 16 0
BBX 16 29 0 -5
BITMAP
0000
0000
0000
0000
0000
0000
0000
0000
0000
0000
0000
0000
0000
0000
0000
0000
0000
0000
0000
3800
3800
3800
3800
3800
7800
F000
6000
0000
0000
ENDCHAR

STARTCHAR 131
ENCODING 131
SWIDTH 16000 0
DWIDTH 16 0
BBX 16 29 0 -5
BITMAP
0078
01F8
03F8
0380
0700
0700
0700
0700
0700
0700
1FC0
1FC0
1FC0
0700
0700
0700
0700
0700
0700
0700
0700
0700
0700
0700
0700
0E00
FE00
FC00
F000
ENDCHAR

STARTCHAR 132
ENCODING 132
SWIDTH 16000 0
DWIDTH 16 0
BBX 16 29 0 -5
BITMAP
0000
0000
0000
0000
0000
0000
0000
0000
0000
0000
0000
0000
0000
0000
0000
0000
0000
0000
0000
38E0
38E0
38E0
38E0
38E0
79E0
F3C0
6180
0000
0000
ENDCHAR

STARTCHAR 133
ENCODING 133
SWIDTH 16000 0
DWIDTH 16 0
BBX 16 29 0 -5
BITMAP
0000
0000
0000
0000
0000
0000
0000
0000
0000
0000
0000
0000
0000
0000
0000
0000
0000
0000
0000
0000
0000
E738
E738
E738
0000
0000
0000
0000
0000
ENDCHAR

STARTCHAR 134
ENCODING 134
SWIDTH 16000 0
DWIDTH 16 0
BBX 16 29 0 -5
BITMAP
0000
0000
0000
0000
0000
0700
0700
0700
3FE0
3FE0
3FE0
0700
0700
0700
0700
0700
0700
0700
0700
0000
0000
0000
0000
0000
0000
0000
0000
0000
0000
ENDCHAR

STARTCHAR 135
ENCODING 135
SWIDTH 16000 0
DWIDTH 16 0
BBX 16 29 0 -5
BITMAP
0000
0000
0000
0000
0000
0700
0700
0700
3FE0
3FE0
3FE0
0700
0700
3FE0
3FE0
3FE0
0700
0700
0700
0000
0000
0000
0000
0000
0000
0000
0000
0000
0000
ENDCHAR

STARTCHAR 136
ENCODING 136
SWIDTH 16000 0
DWIDTH 16 0
BBX 16 29 0 -5
BITMAP
0000
0000
0300
0780
0FC0
1FE0
3CF0
1860
0000
0000
0000
0000
0000
0000
0000
0000
0000
0000
0000
0000
0000
0000
0000
0000
0000
0000
0000
0000
0000
ENDCHAR

STARTCHAR 137
ENCODING 137
SWIDTH 16000 0
DWIDTH 16 0
BBX 16 29 0 -5
BITMAP
0000
0000
1FFE
3FFE
7FFE
771E
E33C
E378
E3F0
F7E0
7FC0
7F80
3F00
0F38
3FFC
7FFC
FDEE
F8C6
D8C6
98C6
1DEE
0FFC
0FFC
0738
0000
0000
0000
0000
0000
ENDCHAR

STARTCHAR 138
ENCODING 138
SWIDTH 16000 0
DWIDTH 16 0
BBX 16 29 0 -5
BITMAP
18C0
3DE0
1FC0
0F80
0700
0FC0
3FF0
7FF8
7038
E01C
E01C
E000
7000
7FC0
3FF0
0FF8
0038
001C
E01C
E01C
7038
7FF8
3FF0
0FC0
0000
0000
0000
0000
0000
ENDCHAR

STARTCHAR 139
ENCODING 139
SWIDTH 16000 0
DWIDTH 16 0
BBX 16 29 0 -5
BITMAP
0000
0000
0000
0000
0000
0000
0000
0000
0000
0000
0000
0000
3000
3800
7000
7000
E000
E000
E000
E000
E000
7000
7000
3800
3000
0000
0000
0000
0000
ENDCHAR

STARTCHAR 140
ENCODING 140
SWIDTH 16000 0
DWIDTH 16 0
BBX 16 29 0 -5
BITMAP
0000
0000
0000
0000
0000
0FFC
3FFC
7FFC
7700
E700
E700
E700
E700
E7E0
E7E0
E7E0
E700
E700
E700
E700
7700
7FFC
3FFC
0FFC
0000
0000
0000
0000
0000
ENDCHAR

STARTCHAR 141
ENCODING 141
SWIDTH 16000 0
DWIDTH 16 0
BBX 16 29 0 -5
BITMAP
0000
0000
0000
0000
0000
0000
0000
0000
0000
0000
0000
0000
0000
0000
0000
0000
0000
0000
0000
0000
0000
0000
0000
0000
0000
0000
0000
0000
0000
ENDCHAR

STARTCHAR 142
ENCODING 142
SWIDTH 16000 0
DWIDTH 16 0
BBX 16 29 0 -5
BITMAP
0000
0000
0000
0000
0000
0000
0000
0000
0000
0000
0000
0000
0000
0000
0000
0000
0000
0000
0000
0000
0000
0000
0000
0000
0000
0000
0000
0000
0000
ENDCHAR

STARTCHAR 143
ENCODING 143
SWIDTH 16000 0
DWIDTH 16 0
BBX 16 29 0 -5
BITMAP
0000
0000
0000
0000
0000
0000
0000
0000
0000
0000
0000
0000
0000
0000
0000
0000
0000
0000
0000
0000
0000
0000
0000
0000
0000
0000
0000
0000
0000
ENDCHAR

STARTCHAR 144
ENCODING 144
SWIDTH 16000 0
DWIDTH 16 0
BBX 16 29 0 -5
BITMAP
0000
0000
0000
0000
0000
0000
0000
0000
0000
0000
0000
0000
0000
0000
0000
0000
0000
0000
0000
0000
0000
0000
0000
0000
0000
0000
0000
0000
0000
ENDCHAR

STARTCHAR 145
ENCODING 145
SWIDTH 16000 0
DWIDTH 16 0
BBX 16 29 0 -5
BITMAP
0000
0000
0000
0000
0000
0180
03C0
0780
0700
0700
0700
0700
0700
0000
0000
0000
0000
0000
0000
0000
0000
0000
0000
0000
0000
0000
0000
0000
0000
ENDCHAR

STARTCHAR 146
ENCODING 146
SWIDTH 16000 0
DWIDTH 16 0
BBX 16 29 0 -5
BITMAP
0000
0000
0000
0000
0000
00E0
00E0
00E0
00E0
00E0
01E0
03C0
0180
0000
0000
0000
0000
0000
0000
0000
0000
0000
0000
0000
0000
0000
0000
0000
0000
ENDCHAR

STARTCHAR 147
ENCODING 147
SWIDTH 16000 0
DWIDTH 16 0
BBX 16 29 0 -5
BITMAP
0000
0000
0000
0000
0000
0C30
1E78
3CF0
38E0
38E0
38E0
38E0
38E0
0000
0000
0000
0000
0000
0000
0000
0000
0000
0000
0000
0000
0000
0000
0000
0000
ENDCHAR

STARTCHAR 148
ENCODING 148
SWIDTH 16000 0
DWIDTH 16 0
BBX 16 29 0 -5
BITMAP
0000
0000
0000
0000
0000
071C
071C
071C
071C
071C
0F3C
1E78
0C30
0000
0000
0000
0000
0000
0000
0000
0000
0000
0000
0000
0000
0000
0000
0000
0000
ENDCHAR

STARTCHAR 149
ENCODING 149
SWIDTH 16000 0
DWIDTH 16 0
BBX 16 29 0 -5
BITMAP
0000
0000
0000
0000
0000
0000
0000
0000
0F80
3FE0
7FF0
7FF0
FFF8
FFF8
FFF8
FFF8
FFF8
7FF0
7FF0
3FE0
0F80
0000
0000
0000
0000
0000
0000
0000
0000
ENDCHAR

STARTCHAR 150
ENCODING 150
SWIDTH 16000 0
DWIDTH 16 0
BBX 16 29 0 -5
BITMAP
0000
0000
0000
0000
0000
0000
0000
0000
0000
0000
0000
0000
0000
1FE0
1FE0
1FE0
0000
0000
0000
0000
0000
0000
0000
0000
0000
0000
0000
0000
0000
ENDCHAR

STARTCHAR 151
ENCODING 151
SWIDTH 16000 0
DWIDTH 16 0
BBX 16 29 0 -5
BITMAP
0000
0000
0000
0000
0000
0000
0000
0000
0000
0000
0000
0000
0000
FFFF
FFFF
FFFF
0000
0000
0000
0000
0000
0000
0000
0000
0000
0000
0000
0000
0000
ENDCHAR

STARTCHAR 152
ENCODING 152
SWIDTH 16000 0
DWIDTH 16 0
BBX 16 29 0 -5
BITMAP
0000
0000
0000
3C38
7F38
FFF8
E7F0
E1E0
0000
0000
0000
0000
0000
0000
0000
0000
0000
0000
0000
0000
0000
0000
0000
0000
0000
0000
0000
0000
0000
ENDCHAR

STARTCHAR 153
ENCODING 153
SWIDTH 16000 0
DWIDTH 16 0
BBX 16 29 0 -5
BITMAP
0000
0000
0000
0000
0000
FFCE
FFFE
FFFE
39FE
39FE
39CE
39CE
39CE
0000
0000
0000
0000
0000
0000
0000
0000
0000
0000
0000
0000
0000
0000
0000
0000
ENDCHAR

STARTCHAR 154
ENCODING 154
SWIDTH 16000 0
DWIDTH 16 0
BBX 16 29 0 -5
BITMAP
0000
0000
1860
3CF0
1FE0
0FC0
0780
0300
0000
0000
0FFC
3FFC
7FFC
F000
E000
FFC0
7FF0
1FF8
003C
001C
003C
FFF8
FFF0
FFC0
0000
0000
0000
0000
0000
ENDCHAR

STARTCHAR 155
ENCODING 155
SWIDTH 16000 0
DWIDTH 16 0
BBX 16 29 0 -5
BITMAP
0000
0000
0000
0000
0000
0000
0000
0000
0000
0000
0000
0000
6000
E000
7000
7000
3800
3800
3800
3800
3800
7800
7000
E000
6000
0000
0000
0000
0000
ENDCHAR

STARTCHAR 156
ENCODING 156
SWIDTH 16000 0
DWIDTH 16 0
BBX 16 29 0 -5
BITMAP
0000
0000
0000
0000
0000
0000
0000
0000
0000
0000
3CF0
7FF8
7FF8
E71C
E71C
E71C
E7FC
E7FC
E7FC
E700
E700
7FFC
7FFC
3CFC
0000
0000
0000
0000
0000
ENDCHAR

STARTCHAR 157
ENCODING 157
SWIDTH 16000 0
DWIDTH 16 0
BBX 16 29 0 -5
BITMAP
0000
0000
0000
0000
0000
0000
0000
0000
0000
0000
0000
0000
0000
0000
0000
0000
0000
0000
0000
0000
0000
0000
0000
0000
0000
0000
0000
0000
0000
ENDCHAR

STARTCHAR 158
ENCODING 158
SWIDTH 16000 0
DWIDTH 16 0
BBX 16 29 0 -5
BITMAP
0000
0000
0000
0000
0000
0000
0000
0000
0000
0000
0000
0000
0000
0000
0000
0000
0000
0000
0000
0000
0000
0000
0000
0000
0000
0000
0000
0000
0000
ENDCHAR

STARTCHAR 159
ENCODING 159
SWIDTH 16000 0
DWIDTH 16 0
BBX 16 29 0 -5
BITMAP
38E0
38E0
38E0
0000
0000
E038
E038
E038
E038
E038
E038
E038
F078
78F0
3DE0
1FC0
0F80
0700
0700
0700
0700
0700
0700
0700
0000
0000
0000
0000
0000
ENDCHAR

STARTCHAR 160
ENCODING 160
SWIDTH 16000 0
DWIDTH 16 0
BBX 16 29 0 -5
BITMAP
0000
0000
0000
0000
0000
0000
0000
0000
0000
0000
0000
0000
0000
0000
0000
0000
0000
0000
0000
0000
0000
0000
0000
0000
0000
0000
0000
0000
0000
ENDCHAR

STARTCHAR 161
ENCODING 161
SWIDTH 16000 0
DWIDTH 16 0
BBX 16 29 0 -5
BITMAP
0000
0000
0000
0000
0000
00E0
00E0
00E0
0000
0000
00E0
00E0
00E0
00E0
00E0
00E0
00E0
00E0
00E0
00E0
00E0
00E0
00E0
00E0
0000
0000
0000
0000
0000
ENDCHAR

STARTCHAR 162
ENCODING 162
SWIDTH 16000 0
DWIDTH 16 0
BBX 16 29 0 -5
BITMAP
0000
0000
0000
0000
0000
0000
0000
0700
0700
0700
0F80
3FE0
7FF0
7770
E738
E738
E700
E700
E700
E700
7700
7FF8
3FF8
0FF8
0700
0700
0700
0000
0000
ENDCHAR

STARTCHAR 163
ENCODING 163
SWIDTH 16000 0
DWIDTH 16 0
BBX 16 29 0 -5
BITMAP
0000
0000
0E00
3F80
7F80
71C0
E0E0
E0E0
E000
E000
FF00
FF00
FF00
E000
E000
E000
E000
E000
E038
E038
E070
FFF0
FFE0
FF80
0000
0000
0000
0000
0000
ENDCHAR

STARTCHAR 164
ENCODING 164
SWIDTH 16000 0
DWIDTH 16 0
BBX 16 29 0 -5
BITMAP
0000
0000
0000
0000
0000
0000
0000
0000
0000
0000
0000
4010
E038
7070
3FE0
1FC0
1DC0
18C0
1DC0
1FC0
3FE0
7070
E038
4010
0000
0000
0000
0000
0000
ENDCHAR

STARTCHAR 165
ENCODING 165
SWIDTH 16000 0
DWIDTH 16 0
BBX 16 29 0 -5
BITMAP
0000
0000
0000
0000
0000
600C
F01E
783C
3C78
1EF0
7FFC
7FFC
7FFC
0380
0380
0380
7FFC
7FFC
7FFC
0380
0380
0380
0380
0380
0000
0000
0000
0000
0000
ENDCHAR

STARTCHAR 166
ENCODING 166
SWIDTH 16000 0
DWIDTH 16 0
BBX 16 29 0 -5
BITMAP
0000
0000
0700
0700
0700
0700
0700
0700
0700
0700
0700
0700
0700
0000
0000
0000
0700
0700
0700
0700
0700
0700
0700
0700
0700
0700
0700
0000
0000
ENDCHAR

STARTCHAR 167
ENCODING 167
SWIDTH 16000 0
DWIDTH 16 0
BBX 16 29 0 -5
BITMAP
0FC0
3FF0
3FF8
7038
701C
781C
3C1C
1E1C
EF00
E780
E3C0
E1E0
F0F0
7878
3C3C
1E1C
0F1C
079C
03DC
E1E0
E0F0
E078
E038
7038
7FF0
3FF0
0F80
0000
0000
ENDCHAR

STARTCHAR 168
ENCODING 168
SWIDTH 16000 0
DWIDTH 16 0
BBX 16 29 0 -5
BITMAP
0000
0000
0000
0000
0000
1CE0
1CE0
1CE0
0000
0000
0000
0000
0000
0000
0000
0000
0000
0000
0000
0000
0000
0000
0000
0000
0000
0000
0000
0000
0000
ENDCHAR

STARTCHAR 169
ENCODING 169
SWIDTH 16000 0
DWIDTH 16 0
BBX 16 29 0 -5
BITMAP
0000
0000
0000
0000
0000
1C00
FF80
FFE0
C1F0
0070
1F38
7F38
7F18
E01C
E01C
E01C
7F18
7F38
1F38
0070
C1F0
FFE0
FF80
1C00
0000
0000
0000
0000
0000
ENDCHAR

STARTCHAR 170
ENCODING 170
SWIDTH 16000 0
DWIDTH 16 0
BBX 16 29 0 -5
BITMAP
03FC
0FFC
1FFC
1C1C
381C
381C
381C
1C1C
1FFC
0FFC
03FC
0000
0000
3FFC
3FFC
3FFC
0000
0000
0000
0000
0000
0000
0000
0000
0000
0000
0000
0000
0000
ENDCHAR

STARTCHAR 171
ENCODING 171
SWIDTH 16000 0
DWIDTH 16 0
BBX 16 29 0 -5
BITMAP
0000
0000
0000
0000
0000
0000
0000
0000
0000
0000
0000
0000
3030
3838
7070
7070
E0E0
E0E0
E0E0
E0E0
E0E0
7070
7070
3838
3030
0000
0000
0000
0000
ENDCHAR

STARTCHAR 172
ENCODING 172
SWIDTH 16000 0
DWIDTH 16 0
BBX 16 29 0 -5
BITMAP
0000
0000
0000
0000
0000
0000
0000
0000
0000
0000
0000
0000
0000
FFFC
FFFC
FFFC
001C
001C
001C
001C
001C
0000
0000
0000
0000
0000
0000
0000
0000
ENDCHAR

STARTCHAR 173
ENCODING 173
SWIDTH 16000 0
DWIDTH 16 0
BBX 16 29 0 -5
BITMAP
0000
0000
0000
0000
0000
0000
0000
0000
0000
0000
0000
0000
0000
FFF8
FFF8
FFF8
0000
0000
0000
0000
0000
0000
0000
0000
0000
0000
0000
0000
0000
ENDCHAR

STARTCHAR 174
ENCODING 174
SWIDTH 16000 0
DWIDTH 16 0
BBX 16 29 0 -5
BITMAP
0000
0000
0000
0000
0000
1C00
FF80
FFE0
C1F0
0070
F838
FE38
FE18
E71C
E71C
E71C
FE18
FE38
FE38
EFF0
E7F0
E3C0
0000
0000
0000
0000
0000
0000
0000
ENDCHAR

STARTCHAR 175
ENCODING 175
SWIDTH 16000 0
DWIDTH 16 0
BBX 16 29 0 -5
BITMAP
0000
0000
0000
0000
0000
1FE0
1FE0
1FE0
0000
0000
0000
0000
0000
0000
0000
0000
0000
0000
0000
0000
0000
0000
0000
0000
0000
0000
0000
0000
0000
ENDCHAR

STARTCHAR 176
ENCODING 176
SWIDTH 16000 0
DWIDTH 16 0
BBX 16 29 0 -5
BITMAP
0000
0000
03C0
0FF0
1FF8
1C38
381C
381C
381C
381C
1C38
1FF8
0FF0
03C0
0000
0000
0000
0000
0000
0000
0000
0000
0000
0000
0000
0000
0000
0000
0000
ENDCHAR

STARTCHAR 177
ENCODING 177
SWIDTH 16000 0
DWIDTH 16 0
BBX 16 29 0 -5
BITMAP
0000
0000
0000
0000
0000
0000
0000
0000
0700
0700
0700
0700
0700
FFF8
FFF8
FFF8
0700
0700
0700
0700
0700
FFF8
FFF8
FFF8
0000
0000
0000
0000
0000
ENDCHAR

STARTCHAR 178
ENCODING 178
SWIDTH 16000 0
DWIDTH 16 0
BBX 16 29 0 -5
BITMAP
0780
0840
0040
0040
0080
0100
0200
0400
0FC0
0000
0000
0000
0000
0000
0000
0000
0000
0000
0000
0000
0000
0000
0000
0000
0000
0000
0000
0000
0000
ENDCHAR

STARTCHAR 179
ENCODING 179
SWIDTH 16000 0
DWIDTH 16 0
BBX 16 29 0 -5
BITMAP
0780
0840
0040
0080
0300
0080
0040
0840
0780
0000
0000
0000
0000
0000
0000
0000
0000
0000
0000
0000
0000
0000
0000
0000
0000
0000
0000
0000
0000
ENDCHAR

STARTCHAR 180
ENCODING 180
SWIDTH 16000 0
DWIDTH 16 0
BBX 16 29 0 -5
BITMAP
0000
0000
0060
00F0
01E0
03C0
0780
0300
0000
0000
0000
0000
0000
0000
0000
0000
0000
0000
0000
0000
0000
0000
0000
0000
0000
0000
0000
0000
0000
ENDCHAR

STARTCHAR 181
ENCODING 181
SWIDTH 16000 0
DWIDTH 16 0
BBX 16 29 0 -5
BITMAP
0000
0000
0000
0000
0000
0000
0000
0000
0000
0000
0000
E0E0
E0E0
E0E0
E0E0
E0E0
E0E0
E0E0
E0E0
E0E0
E1F0
FFFC
FFBC
FE0C
E000
E000
E000
E000
E000
ENDCHAR

STARTCHAR 182
ENCODING 182
SWIDTH 16000 0
DWIDTH 16 0
BBX 16 29 0 -5
BITMAP
0000
0000
07FC
1FFC
3FFC
7F1C
771C
E71C
E71C
E71C
E71C
771C
7F1C
3FFC
1FFC
07FC
071C
071C
071C
071C
071C
071C
071C
071C
0000
0000
0000
0000
0000
ENDCHAR

STARTCHAR 183
ENCODING 183
SWIDTH 16000 0
DWIDTH 16 0
BBX 16 29 0 -5
BITMAP
0000
0000
0000
0000
0000
0000
0000
0000
0000
0000
0000
0000
0000
0380
07C0
07C0
07C0
0380
0000
0000
0000
0000
0000
0000
0000
0000
0000
0000
0000
ENDCHAR

STARTCHAR 184
ENCODING 184
SWIDTH 16000 0
DWIDTH 16 0
BBX 16 29 0 -5
BITMAP
0000
0000
0000
0000
0000
0000
0000
0000
0000
0000
0000
0000
0000
0000
0000
0000
0000
0000
0000
0000
0000
1F80
1F80
1F80
0780
0F80
1F00
1E00
0C00
ENDCHAR

STARTCHAR 185
ENCODING 185
SWIDTH 16000 0
DWIDTH 16 0
BBX 16 29 0 -5
BITMAP
0100
0700
0100
0100
0100
0100
0100
0100
0FE0
0000
0000
0000
0000
0000
0000
0000
0000
0000
0000
0000
0000
0000
0000
0000
0000
0000
0000
0000
0000
ENDCHAR

STARTCHAR 186
ENCODING 186
SWIDTH 16000 0
DWIDTH 16 0
BBX 16 29 0 -5
BITMAP
01C0
07F0
0FF8
0E38
1C1C
1C1C
1C1C
0E38
0FF8
07F0
01C0
0000
0000
1FFC
1FFC
1FFC
0000
0000
0000
0000
0000
0000
0000
0000
0000
0000
0000
0000
0000
ENDCHAR

STARTCHAR 187
ENCODING 187
SWIDTH 16000 0
DWIDTH 16 0
BBX 16 29 0 -5
BITMAP
0000
0000
0000
0000
0000
0000
0000
0000
0000
0000
0000
0000
6060
E0E0
7070
7070
3838
3838
3838
3838
3838
7070
7070
E0E0
6060
0000
0000
0000
0000
ENDCHAR

STARTCHAR 188
ENCODING 188
SWIDTH 16000 0
DWIDTH 16 0
BBX 16 29 0 -5
BITMAP
0800
3800
0800
0800
0800
0800
0802
0804
7F08
0010
0020
0040
0080
0100
0200
0408
0818
1028
2048
4088
80FE
0008
0008
003E
0000
0000
0000
0000
0000
ENDCHAR

STARTCHAR 189
ENCODING 189
SWIDTH 16000 0
DWIDTH 16 0
BBX 16 29 0 -5
BITMAP
0800
3800
0800
0800
0800
0800
0802
0804
7F08
0010
0020
0040
0080
0100
0200
0478
0884
1004
2004
4008
8010
0020
0040
00FC
0000
0000
0000
0000
0000
ENDCHAR

STARTCHAR 190
ENCODING 190
SWIDTH 16000 0
DWIDTH 16 0
BBX 16 29 0 -5
BITMAP
1E00
2100
0100
0200
0C00
0200
0102
2104
1E08
0010
0020
0040
0080
0100
0200
0408
0818
1028
2048
4088
80FE
0008
0008
003E
0000
0000
0000
0000
0000
ENDCHAR

STARTCHAR 191
ENCODING 191
SWIDTH 16000 0
DWIDTH 16 0
BBX 16 29 0 -5
BITMAP
0000
0000
0000
0000
0000
0380
0380
0380
0000
0000
0380
0780
0F00
1E00
3C00
7800
F000
E000
E01C
E01C
7038
7FF8
3FF0
0FC0
0000
0000
0000
0000
0000
ENDCHAR

STARTCHAR 192
ENCODING 192
SWIDTH 16000 0
DWIDTH 16 0
BBX 16 29 0 -5
BITMAP
1800
3C00
1E00
0F00
0780
0780
0780
0FC0
0FC0
1CE0
1CE0
3870
3870
7038
7038
E01C
FFFC
FFFC
FFFC
E01C
E01C
E01C
E01C
E01C
0000
0000
0000
0000
0000
ENDCHAR

STARTCHAR 193
ENCODING 193
SWIDTH 16000 0
DWIDTH 16 0
BBX 16 29 0 -5
BITMAP
0060
00F0
01E0
03C0
0780
0780
0780
0FC0
0FC0
1CE0
1CE0
3870
3870
7038
7038
E01C
FFFC
FFFC
FFFC
E01C
E01C
E01C
E01C
E01C
0000
0000
0000
0000
0000
ENDCHAR

STARTCHAR 194
ENCODING 194
SWIDTH 16000 0
DWIDTH 16 0
BBX 16 29 0 -5
BITMAP
0300
0780
0FC0
1FE0
1CE0
0B40
0780
0FC0
0FC0
1CE0
1CE0
3870
3870
7038
7038
E01C
FFFC
FFFC
FFFC
E01C
E01C
E01C
E01C
E01C
0000
0000
0000
0000
0000
ENDCHAR

STARTCHAR 195
ENCODING 195
SWIDTH 16000 0
DWIDTH 16 0
BBX 16 29 0 -5
BITMAP
3C38
7F38
FFF8
E7F0
E1E0
0780
0780
0FC0
0FC0
1CE0
1CE0
3870
3870
7038
7038
E01C
FFFC
FFFC
FFFC
E01C
E01C
E01C
E01C
E01C
0000
0000
0000
0000
0000
ENDCHAR

STARTCHAR 196
ENCODING 196
SWIDTH 16000 0
DWIDTH 16 0
BBX 16 29 0 -5
BITMAP
3870
3870
3870
0000
0000
0780
0780
0FC0
0FC0
1CE0
1CE0
3870
3870
7038
7038
E01C
FFFC
FFFC
FFFC
E01C
E01C
E01C
E01C
E01C
0000
0000
0000
0000
0000
ENDCHAR

STARTCHAR 197
ENCODING 197
SWIDTH 16000 0
DWIDTH 16 0
BBX 16 29 0 -5
BITMAP
0780
0FC0
1CE0
1860
1CE0
0FC0
0780
0FC0
0FC0
1CE0
1CE0
3870
3870
7038
7038
E01C
FFFC
FFFC
FFFC
E01C
E01C
E01C
E01C
E01C
0000
0000
0000
0000
0000
ENDCHAR

STARTCHAR 198
ENCODING 198
SWIDTH 16000 0
DWIDTH 16 0
BBX 16 29 0 -5
BITMAP
0000
0000
0000
0000
0000
0FFC
3FFC
7FFC
7700
E700
E700
E700
E700
FFE0
FFE0
FFE0
E700
E700
E700
E700
E700
E7FC
E7FC
E7FC
0000
0000
0000
0000
0000
ENDCHAR

STARTCHAR 199
ENCODING 199
SWIDTH 16000 0
DWIDTH 16 0
BBX 16 29 0 -5
BITMAP
0000
0000
0000
0000
0000
0FC0
3FF0
7FF8
7038
E01C
E01C
E000
E000
E000
E000
E000
E000
E000
E01C
E01C
7038
7FF8
3FF0
0FC0
0700
0F00
1E00
3C00
1800
ENDCHAR

STARTCHAR 200
ENCODING 200
SWIDTH 16000 0
DWIDTH 16 0
BBX 16 29 0 -5
BITMAP
1800
3C00
1E00
0F00
0780
FFFC
FFFC
FFFC
E000
E000
E000
E000
E000
FFE0
FFE0
FFE0
E000
E000
E000
E000
E000
FFFC
FFFC
FFFC
0000
0000
0000
0000
0000
ENDCHAR

STARTCHAR 201
ENCODING 201
SWIDTH 16000 0
DWIDTH 16 0
BBX 16 29 0 -5
BITMAP
0060
00F0
01E0
03C0
0780
FFFC
FFFC
FFFC
E000
E000
E000
E000
E000
FFE0
FFE0
FFE0
E000
E000
E000
E000
E000
FFFC
FFFC
FFFC
0000
0000
0000
0000
0000
ENDCHAR

STARTCHAR 202
ENCODING 202
SWIDTH 16000 0
DWIDTH 16 0
BBX 16 29 0 -5
BITMAP
0300
0780
0FC0
1FE0
1CE0
FFFC
FFFC
FFFC
E000
E000
E000
E000
E000
FFE0
FFE0
FFE0
E000
E000
E000
E000
E000
FFFC
FFFC
FFFC
0000
0000
0000
0000
0000
ENDCHAR

STARTCHAR 203
ENCODING 203
SWIDTH 16000 0
DWIDTH 16 0
BBX 16 29 0 -5
BITMAP
3870
3870
3870
0000
0000
FFFC
FFFC
FFFC
E000
E000
E000
E000
E000
FFE0
FFE0
FFE0
E000
E000
E000
E000
E000
FFFC
FFFC
FFFC
0000
0000
0000
0000
0000
ENDCHAR

STARTCHAR 204
ENCODING 204
SWIDTH 16000 0
DWIDTH 16 0
BBX 16 29 0 -5
BITMAP
1800
3C00
1E00
0F00
0700
FFF8
FFF8
FFF8
0700
0700
0700
0700
0700
0700
0700
0700
0700
0700
0700
0700
0700
FFF8
FFF8
FFF8
0000
0000
0000
0000
0000
ENDCHAR

STARTCHAR 205
ENCODING 205
SWIDTH 16000 0
DWIDTH 16 0
BBX 16 29 0 -5
BITMAP
00C0
01E0
03C0
0780
0700
FFF8
FFF8
FFF8
0700
0700
0700
0700
0700
0700
0700
0700
0700
0700
0700
0700
0700
FFF8
FFF8
FFF8
0000
0000
0000
0000
0000
ENDCHAR

STARTCHAR 206
ENCODING 206
SWIDTH 16000 0
DWIDTH 16 0
BBX 16 29 0 -5
BITMAP
0200
0700
0F80
1FC0
38E0
FFF8
FFF8
FFF8
0700
0700
0700
0700
0700
0700
0700
0700
0700
0700
0700
0700
0700
FFF8
FFF8
FFF8
0000
0000
0000
0000
0000
ENDCHAR

STARTCHAR 207
ENCODING 207
SWIDTH 16000 0
DWIDTH 16 0
BBX 16 29 0 -5
BITMAP
38E0
38E0
38E0
0000
0000
FFF8
FFF8
FFF8
0700
0700
0700
0700
0700
0700
0700
0700
0700
0700
0700
0700
0700
FFF8
FFF8
FFF8
0000
0000
0000
0000
0000
ENDCHAR

STARTCHAR 208
ENCODING 208
SWIDTH 16000 0
DWIDTH 16 0
BBX 16 29 0 -5
BITMAP
0000
0000
0000
0000
0000
1FC0
1FF0
1FF8
1C38
1C1C
1C1C
1C1C
1C1C
FF9C
FF9C
FF9C
1C1C
1C1C
1C1C
1C1C
1C38
1FF8
1FF0
1FC0
0000
0000
0000
0000
0000
ENDCHAR

STARTCHAR 209
ENCODING 209
SWIDTH 16000 0
DWIDTH 16 0
BBX 16 29 0 -5
BITMAP
3C38
7F38
FFF8
E7F0
E1E0
E01C
F01C
F81C
FC1C
FE1C
EF1C
E79C
E3DC
E1FC
E0FC
E07C
E03C
E01C
E01C
E01C
E01C
E01C
E01C
E01C
0000
0000
0000
0000
0000
ENDCHAR

STARTCHAR 210
ENCODING 210
SWIDTH 16000 0
DWIDTH 16 0
BBX 16 29 0 -5
BITMAP
0C00
1E00
0F00
0780
0380
0FC0
3FF0
7FF8
7038
E01C
E01C
E01C
E01C
E01C
E01C
E01C
E01C
E01C
E01C
E01C
7038
7FF8
3FF0
0FC0
0000
0000
0000
0000
0000
ENDCHAR

STARTCHAR 211
ENCODING 211
SWIDTH 16000 0
DWIDTH 16 0
BBX 16 29 0 -5
BITMAP
00C0
01E0
03C0
0780
0700
0FC0
3FF0
7FF8
7038
E01C
E01C
E01C
E01C
E01C
E01C
E01C
E01C
E01C
E01C
E01C
7038
7FF8
3FF0
0FC0
0000
0000
0000
0000
0000
ENDCHAR

STARTCHAR 212
ENCODING 212
SWIDTH 16000 0
DWIDTH 16 0
BBX 16 29 0 -5
BITMAP
0300
0780
0FC0
1FE0
3CF0
1860
0FC0
3FF0
7FF8
7038
E01C
E01C
E01C
E01C
E01C
E01C
E01C
E01C
E01C
E01C
7038
7FF8
3FF0
0FC0
0000
0000
0000
0000
0000
ENDCHAR

STARTCHAR 213
ENCODING 213
SWIDTH 16000 0
DWIDTH 16 0
BBX 16 29 0 -5
BITMAP
3C38
7F38
FFF8
E7F0
E1E0
0FC0
3FF0
7FF8
7038
E01C
E01C
E01C
E01C
E01C
E01C
E01C
E01C
E01C
E01C
E01C
7038
7FF8
3FF0
0FC0
0000
0000
0000
0000
0000
ENDCHAR

STARTCHAR 214
ENCODING 214
SWIDTH 16000 0
DWIDTH 16 0
BBX 16 29 0 -5
BITMAP
3870
3870
3870
0000
0000
0FC0
3FF0
7FF8
7038
E01C
E01C
E01C
E01C
E01C
E01C
E01C
E01C
E01C
E01C
E01C
7038
7FF8
3FF0
0FC0
0000
0000
0000
0000
0000
ENDCHAR

STARTCHAR 215
ENCODING 215
SWIDTH 16000 0
DWIDTH 16 0
BBX 16 29 0 -5
BITMAP
0000
0000
0000
0000
0000
0000
0000
0000
6018
F03C
7878
3CF0
1FE0
0FC0
0780
0FC0
1FE0
3CF0
7878
F03C
6018
0000
0000
0000
0000
0000
0000
0000
0000
ENDCHAR

STARTCHAR 216
ENCODING 216
SWIDTH 16000 0
DWIDTH 16 0
BBX 16 29 0 -5
BITMAP
0000
0000
0000
0000
0000
0FC0
3FF0
7FF8
7038
E03C
E07C
E0FC
E1FC
E3DC
E79C
EF1C
FE1C
FC1C
F81C
F01C
7038
7FF8
3FF0
0FC0
0000
0000
0000
0000
0000
ENDCHAR

STARTCHAR 217
ENCODING 217
SWIDTH 16000 0
DWIDTH 16 0
BBX 16 29 0 -5
BITMAP
1800
3C00
1E00
0F00
0780
E31C
E01C
E01C
E01C
E01C
E01C
E01C
E01C
E01C
E01C
E01C
E01C
E01C
E01C
E01C
7038
7FF8
3FF0
0FC0
0000
0000
0000
0000
0000
ENDCHAR

STARTCHAR 218
ENCODING 218
SWIDTH 16000 0
DWIDTH 16 0
BBX 16 29 0 -5
BITMAP
0060
00F0
01E0
03C0
0780
E31C
E01C
E01C
E01C
E01C
E01C
E01C
E01C
E01C
E01C
E01C
E01C
E01C
E01C
E01C
7038
7FF8
3FF0
0FC0
0000
0000
0000
0000
0000
ENDCHAR

STARTCHAR 219
ENCODING 219
SWIDTH 16000 0
DWIDTH 16 0
BBX 16 29 0 -5
BITMAP
0300
0780
0FC0
1FE0
3CF0
1860
E01C
E01C
E01C
E01C
E01C
E01C
E01C
E01C
E01C
E01C
E01C
E01C
E01C
E01C
7038
7FF8
3FF0
0FC0
0000
0000
0000
0000
0000
ENDCHAR

STARTCHAR 220
ENCODING 220
SWIDTH 16000 0
DWIDTH 16 0
BBX 16 29 0 -5
BITMAP
3870
3870
3870
0000
0000
E01C
E01C
E01C
E01C
E01C
E01C
E01C
E01C
E01C
E01C
E01C
E01C
E01C
E01C
E01C
7038
7FF8
3FF0
0FC0
0000
0000
0000
0000
0000
ENDCHAR

STARTCHAR 221
ENCODING 221
SWIDTH 16000 0
DWIDTH 16 0
BBX 16 29 0 -5
BITMAP
0060
00F0
01E0
03C0
0780
E338
E038
E038
E038
E038
E038
E038
F078
78F0
3DE0
1FC0
0F80
0700
0700
0700
0700
0700
0700
0700
0000
0000
0000
0000
0000
ENDCHAR

STARTCHAR 222
ENCODING 222
SWIDTH 16000 0
DWIDTH 16 0
BBX 16 29 0 -5
BITMAP
0000
0000
0000
0000
0000
E000
E000
E000
FFC0
FFF0
FFF8
E038
E01C
E01C
E01C
E038
FFF8
FFF0
FFC0
E000
E000
E000
E000
E000
0000
0000
0000
0000
0000
ENDCHAR

STARTCHAR 223
ENCODING 223
SWIDTH 16000 0
DWIDTH 16 0
BBX 16 29 0 -5
BITMAP
0000
0000
03C0
07E0
0FF0
1E78
3C38
7838
F038
E038
E070
E0E0
E0E0
E0E0
E0E0
E070
E038
E038
E038
E038
E078
E3F0
E3E0
E3C0
E000
E000
E000
0000
0000
ENDCHAR

STARTCHAR 224
ENCODING 224
SWIDTH 16000 0
DWIDTH 16 0
BBX 16 29 0 -5
BITMAP
0000
0000
0600
0F00
0780
03C0
01E0
00C0
0000
0000
0FFC
3FFC
7FFC
701C
E01C
E01C
E01C
E01C
E03C
E07C
71FC
7FDC
3F9C
0E1C
0000
0000
0000
0000
0000
ENDCHAR

STARTCHAR 225
ENCODING 225
SWIDTH 16000 0
DWIDTH 16 0
BBX 16 29 0 -5
BITMAP
0000
0000
0060
00F0
01E0
03C0
0780
0300
0000
0000
0FFC
3FFC
7FFC
701C
E01C
E01C
E01C
E01C
E03C
E07C
71FC
7FDC
3F9C
0E1C
0000
0000
0000
0000
0000
ENDCHAR

STARTCHAR 226
ENCODING 226
SWIDTH 16000 0
DWIDTH 16 0
BBX 16 29 0 -5
BITMAP
0000
0000
0300
0780
0FC0
1FE0
3CF0
1860
0000
0000
0FFC
3FFC
7FFC
701C
E01C
E01C
E01C
E01C
E03C
E07C
71FC
7FDC
3F9C
0E1C
0000
0000
0000
0000
0000
ENDCHAR

STARTCHAR 227
ENCODING 227
SWIDTH 16000 0
DWIDTH 16 0
BBX 16 29 0 -5
BITMAP
0000
0000
0000
3C38
7F38
FFF8
E7F0
E1E0
0000
0000
0FFC
3FFC
7FFC
701C
E01C
E01C
E01C
E01C
E03C
E07C
71FC
7FDC
3F9C
0E1C
0000
0000
0000
0000
0000
ENDCHAR

STARTCHAR 228
ENCODING 228
SWIDTH 16000 0
DWIDTH 16 0
BBX 16 29 0 -5
BITMAP
0000
0000
0000
0000
0000
3870
3870
3870
0000
0000
0FFC
3FFC
7FFC
701C
E01C
E01C
E01C
E01C
E03C
E07C
71FC
7FDC
3F9C
0E1C
0000
0000
0000
0000
0000
ENDCHAR

STARTCHAR 229
ENCODING 229
SWIDTH 16000 0
DWIDTH 16 0
BBX 16 29 0 -5
BITMAP
0000
0000
0000
07C0
0FE0
0C60
0C60
0C60
0FE0
07C0
0FFC
3FFC
7FFC
701C
E01C
E01C
E01C
E01C
E03C
E07C
71FC
7FDC
3F9C
0E1C
0000
0000
0000
0000
0000
ENDCHAR

STARTCHAR 230
ENCODING 230
SWIDTH 16000 0
DWIDTH 16 0
BBX 16 29 0 -5
BITMAP
0000
0000
0000
0000
0000
0000
0000
0000
0000
0000
0FC0
3FF0
7FF8
7778
E73C
E71C
E7FC
E7FC
E7FC
E700
7700
7FFC
3FFC
0FFC
0000
0000
0000
0000
0000
ENDCHAR

STARTCHAR 231
ENCODING 231
SWIDTH 16000 0
DWIDTH 16 0
BBX 16 29 0 -5
BITMAP
0000
0000
0000
0000
0000
0000
0000
0000
0000
0000
0FC0
3FF0
7FF8
7038
E01C
E01C
E000
E000
E000
E000
7000
7FFC
3FFC
0FFC
0700
0F00
1E00
3C00
1800
ENDCHAR

STARTCHAR 232
ENCODING 232
SWIDTH 16000 0
DWIDTH 16 0
BBX 16 29 0 -5
BITMAP
0000
0000
1800
3C00
1E00
0F00
0780
0300
0000
0000
0FC0
3FF0
7FF8
7038
E01C
E01C
FFFC
FFFC
FFFC
E000
7000
7FFC
3FFC
0FFC
0000
0000
0000
0000
0000
ENDCHAR

STARTCHAR 233
ENCODING 233
SWIDTH 16000 0
DWIDTH 16 0
BBX 16 29 0 -5
BITMAP
0000
0000
0060
00F0
01E0
03C0
0780
0300
0000
0000
0FC0
3FF0
7FF8
7038
E01C
E01C
FFFC
FFFC
FFFC
E000
7000
7FFC
3FFC
0FFC
0000
0000
0000
0000
0000
ENDCHAR

STARTCHAR 234
ENCODING 234
SWIDTH 16000 0
DWIDTH 16 0
BBX 16 29 0 -5
BITMAP
0000
0000
0300
0780
0FC0
1FE0
3CF0
1860
0000
0000
0FC0
3FF0
7FF8
7038
E01C
E01C
FFFC
FFFC
FFFC
E000
7000
7FFC
3FFC
0FFC
0000
0000
0000
0000
0000
ENDCHAR

STARTCHAR 235
ENCODING 235
SWIDTH 16000 0
DWIDTH 16 0
BBX 16 29 0 -5
BITMAP
0000
0000
0000
0000
0000
3870
3870
3870
0000
0000
0FC0
3FF0
7FF8
7038
E01C
E01C
FFFC
FFFC
FFFC
E000
7000
7FFC
3FFC
0FFC
0000
0000
0000
0000
0000
ENDCHAR

STARTCHAR 236
ENCODING 236
SWIDTH 16000 0
DWIDTH 16 0
BBX 16 29 0 -5
BITMAP
0000
0000
1800
3C00
1E00
0F00
0780
0300
0000
0000
3F00
3F00
3F00
0700
0700
0700
0700
0700
0700
0700
0700
3FE0
3FE0
3FE0
0000
0000
0000
0000
0000
ENDCHAR

STARTCHAR 237
ENCODING 237
SWIDTH 16000 0
DWIDTH 16 0
BBX 16 29 0 -5
BITMAP
0000
0000
00C0
01E0
03C0
0780
0F00
0600
0000
0000
3F00
3F00
3F00
0700
0700
0700
0700
0700
0700
0700
0700
3FE0
3FE0
3FE0
0000
0000
0000
0000
0000
ENDCHAR

STARTCHAR 238
ENCODING 238
SWIDTH 16000 0
DWIDTH 16 0
BBX 16 29 0 -5
BITMAP
0000
0000
0300
0780
0FC0
1FE0
3CF0
1860
0000
0000
3F00
3F00
3F00
0700
0700
0700
0700
0700
0700
0700
0700
3FE0
3FE0
3FE0
0000
0000
0000
0000
0000
ENDCHAR

STARTCHAR 239
ENCODING 239
SWIDTH 16000 0
DWIDTH 16 0
BBX 16 29 0 -5
BITMAP
0000
0000
0000
0000
0000
38E0
38E0
38E0
0000
0000
3F00
3F00
3F00
0700
0700
0700
0700
0700
0700
0700
0700
3FE0
3FE0
3FE0
0000
0000
0000
0000
0000
ENDCHAR

STARTCHAR 240
ENCODING 240
SWIDTH 16000 0
DWIDTH 16 0
BBX 16 29 0 -5
BITMAP
0000
3180
7BC0
3F80
1F00
1F00
3F80
7BC0
31E0
00F0
0FF8
3FFC
7FFC
703C
E01C
E01C
E01C
E01C
E01C
E01C
7038
7FF8
3FF0
0FC0
0000
0000
0000
0000
0000
ENDCHAR

STARTCHAR 241
ENCODING 241
SWIDTH 16000 0
DWIDTH 16 0
BBX 16 29 0 -5
BITMAP
0000
0000
0000
3C38
7F38
FFF8
E7F0
E1E0
0000
0000
E1C0
E7F0
EFF8
FE38
F81C
F01C
E01C
E01C
E01C
E01C
E01C
E01C
E01C
E01C
0000
0000
0000
0000
0000
ENDCHAR

STARTCHAR 242
ENCODING 242
SWIDTH 16000 0
DWIDTH 16 0
BBX 16 29 0 -5
BITMAP
0000
0000
1800
3C00
1E00
0F00
0780
0300
0000
0000
0FC0
3FF0
7FF8
7038
E01C
E01C
E01C
E01C
E01C
E01C
7038
7FF8
3FF0
0FC0
0000
0000
0000
0000
0000
ENDCHAR

STARTCHAR 243
ENCODING 243
SWIDTH 16000 0
DWIDTH 16 0
BBX 16 29 0 -5
BITMAP
0000
0000
0060
00F0
01E0
03C0
0780
0300
0000
0000
0FC0
3FF0
7FF8
7038
E01C
E01C
E01C
E01C
E01C
E01C
7038
7FF8
3FF0
0FC0
0000
0000
0000
0000
0000
ENDCHAR

STARTCHAR 244
ENCODING 244
SWIDTH 16000 0
DWIDTH 16 0
BBX 16 29 0 -5
BITMAP
0000
0000
0300
0780
0FC0
1FE0
3CF0
1860
0000
0000
0FC0
3FF0
7FF8
7038
E01C
E01C
E01C
E01C
E01C
E01C
7038
7FF8
3FF0
0FC0
0000
0000
0000
0000
0000
ENDCHAR

STARTCHAR 245
ENCODING 245
SWIDTH 16000 0
DWIDTH 16 0
BBX 16 29 0 -5
BITMAP
0000
0000
0000
3C38
7F38
FFF8
E7F0
E1E0
0000
0000
0FC0
3FF0
7FF8
7038
E01C
E01C
E01C
E01C
E01C
E01C
7038
7FF8
3FF0
0FC0
0000
0000
0000
0000
0000
ENDCHAR

STARTCHAR 246
ENCODING 246
SWIDTH 16000 0
DWIDTH 16 0
BBX 16 29 0 -5
BITMAP
0000
0000
0000
0000
0000
3870
3870
3870
0000
0000
0FC0
3FF0
7FF8
7038
E01C
E01C
E01C
E01C
E01C
E01C
7038
7FF8
3FF0
0FC0
0000
0000
0000
0000
0000
ENDCHAR

STARTCHAR 247
ENCODING 247
SWIDTH 16000 0
DWIDTH 16 0
BBX 16 29 0 -5
BITMAP
0000
0000
0000
0000
0000
0000
0000
0000
0700
0700
0700
0000
0000
FFF8
FFF8
FFF8
0000
0000
0000
0700
0700
0700
0000
0000
0000
0000
0000
0000
0000
ENDCHAR

STARTCHAR 248
ENCODING 248
SWIDTH 16000 0
DWIDTH 16 0
BBX 16 29 0 -5
BITMAP
0000
0000
0000
0000
0000
0000
0000
0000
0000
0000
0FC0
3FF0
7FF8
7078
E0FC
E1DC
E39C
E71C
EE1C
FC1C
7838
7FF8
3FF0
0FC0
0000
0000
0000
0000
0000
ENDCHAR

STARTCHAR 249
ENCODING 249
SWIDTH 16000 0
DWIDTH 16 0
BBX 16 29 0 -5
BITMAP
0000
0000
1800
3C00
1E00
0F00
0780
0300
0000
0000
E01C
E01C
E01C
E01C
E01C
E01C
E01C
E01C
E03C
E07C
71FC
7FDC
3F9C
0E1C
0000
0000
0000
0000
0000
ENDCHAR

STARTCHAR 250
ENCODING 250
SWIDTH 16000 0
DWIDTH 16 0
BBX 16 29 0 -5
BITMAP
0000
0000
0060
00F0
01E0
03C0
0780
0300
0000
0000
E01C
E01C
E01C
E01C
E01C
E01C
E01C
E01C
E03C
E07C
71FC
7FDC
3F9C
0E1C
0000
0000
0000
0000
0000
ENDCHAR

STARTCHAR 251
ENCODING 251
SWIDTH 16000 0
DWIDTH 16 0
BBX 16 29 0 -5
BITMAP
0000
0000
0300
0780
0FC0
1FE0
3CF0
1860
0000
0000
E01C
E01C
E01C
E01C
E01C
E01C
E01C
E01C
E03C
E07C
71FC
7FDC
3F9C
0E1C
0000
0000
0000
0000
0000
ENDCHAR

STARTCHAR 252
ENCODING 252
SWIDTH 16000 0
DWIDTH 16 0
BBX 16 29 0 -5
BITMAP
0000
0000
0000
0000
0000
3870
3870
3870
0000
0000
E01C
E01C
E01C
E01C
E01C
E01C
E01C
E01C
E03C
E07C
71FC
7FDC
3F9C
0E1C
0000
0000
0000
0000
0000
ENDCHAR

STARTCHAR 253
ENCODING 253
SWIDTH 16000 0
DWIDTH 16 0
BBX 16 29 0 -5
BITMAP
0000
0000
0060
00F0
01E0
03C0
0780
0300
0000
0000
E01C
E01C
E01C
E01C
E01C
E01C
E01C
E01C
E01C
E01C
701C
7FFC
3FFC
0FFC
001C
0038
1FF8
1FF0
1FC0
ENDCHAR

STARTCHAR 254
ENCODING 254
SWIDTH 16000 0
DWIDTH 16 0
BBX 16 29 0 -5
BITMAP
0000
0000
0000
0000
0000
E000
E000
E000
E000
E000
FFC0
FFF0
FFF8
E038
E01C
E01C
E01C
E01C
E01C
E01C
E038
FFF8
FFF0
FFC0
E000
E000
E000
E000
E000
ENDCHAR

STARTCHAR 255
ENCODING 255
SWIDTH 16000 0
DWIDTH 16 0
BBX 16 29 0 -5
BITMAP
0000
0000
0000
0000
0000
3870
3870
3870
0000
0000
E01C
E01C
E01C
E01C
E01C
E01C
E01C
E01C
E01C
E01C
701C
7FFC
3FFC
1FFC
001C
0038
1FF8
1FF0
1FE0
ENDCHAR
ENDFONT
